<?xml version="1.0" encoding="UTF-8"?>
<svg version="1.1" xmlns="http://www.w3.org/2000/svg" width="3000" height="1500">
<path d="M0 0 C990 0 1980 0 3000 0 C3000 495 3000 990 3000 1500 C2010 1500 1020 1500 0 1500 C0 1005 0 510 0 0 Z " fill="#131D36" transform="translate(0,0)"/>
<path d="M0 0 C49.5 0 99 0 150 0 C150 4.95 150 9.9 150 15 C224.25 15 298.5 15 375 15 C375 19.95 375 24.9 375 30 C379.95 30 384.9 30 390 30 C390 25.05 390 20.1 390 15 C394.95 15 399.9 15 405 15 C405 158.55 405 302.1 405 450 C-585 450 -1575 450 -2595 450 C-2595 316.35 -2595 182.7 -2595 45 C-2545.5 45 -2496 45 -2445 45 C-2445 40.05 -2445 35.1 -2445 30 C-2395.5 30 -2346 30 -2295 30 C-2295 34.95 -2295 39.9 -2295 45 C-2191.05 45 -2087.1 45 -1980 45 C-1980 49.95 -1980 54.9 -1980 60 C-1871.1 60 -1762.2 60 -1650 60 C-1650 55.05 -1650 50.1 -1650 45 C-1600.5 45 -1551 45 -1500 45 C-1500 40.05 -1500 35.1 -1500 30 C-1430.7 30 -1361.4 30 -1290 30 C-1290 25.05 -1290 20.1 -1290 15 C-1195.95 15 -1101.9 15 -1005 15 C-1005 19.95 -1005 24.9 -1005 30 C-920.85 30 -836.7 30 -750 30 C-750 34.95 -750 39.9 -750 45 C-675.75 45 -601.5 45 -525 45 C-525 40.05 -525 35.1 -525 30 C-411.15 30 -297.3 30 -180 30 C-180 25.05 -180 20.1 -180 15 C-120.6 15 -61.2 15 0 15 C0 10.05 0 5.1 0 0 Z " fill="#435277" transform="translate(2595,1050)"/>
<path d="M0 0 C4.95 0 9.9 0 15 0 C15 44.55 15 89.1 15 135 C19.95 135 24.9 135 30 135 C30 139.95 30 144.9 30 150 C25.05 150 20.1 150 15 150 C15 174.75 15 199.5 15 225 C10.05 225 5.1 225 0 225 C0 229.95 0 234.9 0 240 C4.95 240 9.9 240 15 240 C15 289.5 15 339 15 390 C19.95 390 24.9 390 30 390 C30 394.95 30 399.9 30 405 C25.05 405 20.1 405 15 405 C15 419.85 15 434.7 15 450 C24.9 450 34.8 450 45 450 C45 454.95 45 459.9 45 465 C54.9 465 64.8 465 75 465 C75 460.05 75 455.1 75 450 C70.05 450 65.1 450 60 450 C60 410.4 60 370.8 60 330 C55.05 330 50.1 330 45 330 C45 305.25 45 280.5 45 255 C49.95 255 54.9 255 60 255 C60 274.8 60 294.6 60 315 C64.95 315 69.9 315 75 315 C75 329.85 75 344.7 75 360 C79.95 360 84.9 360 90 360 C90 369.9 90 379.8 90 390 C94.95 390 99.9 390 105 390 C105 394.95 105 399.9 105 405 C100.05 405 95.1 405 90 405 C90 439.65 90 474.3 90 510 C94.95 510 99.9 510 105 510 C105 524.85 105 539.7 105 555 C109.95 555 114.9 555 120 555 C120 559.95 120 564.9 120 570 C115.05 570 110.1 570 105 570 C105 594.75 105 619.5 105 645 C109.95 645 114.9 645 120 645 C120 664.8 120 684.6 120 705 C95.25 705 70.5 705 45 705 C45 700.05 45 695.1 45 690 C25.2 690 5.4 690 -15 690 C-15 675.15 -15 660.3 -15 645 C-19.95 645 -24.9 645 -30 645 C-30 640.05 -30 635.1 -30 630 C-25.05 630 -20.1 630 -15 630 C-15 610.2 -15 590.4 -15 570 C-10.05 570 -5.1 570 0 570 C0 565.05 0 560.1 0 555 C-4.95 555 -9.9 555 -15 555 C-15 470.85 -15 386.7 -15 300 C-19.95 300 -24.9 300 -30 300 C-30 295.05 -30 290.1 -30 285 C-25.05 285 -20.1 285 -15 285 C-15 255.3 -15 225.6 -15 195 C-10.05 195 -5.1 195 0 195 C0 130.65 0 66.3 0 0 Z " fill="#141E36" transform="translate(2700,360)"/>
<path d="M0 0 C9.9 0 19.8 0 30 0 C30 9.9 30 19.8 30 30 C25.05 30 20.1 30 15 30 C15 34.95 15 39.9 15 45 C10.05 45 5.1 45 0 45 C0 54.9 0 64.8 0 75 C4.95 75 9.9 75 15 75 C15 84.9 15 94.8 15 105 C29.85 105 44.7 105 60 105 C60 109.95 60 114.9 60 120 C74.85 120 89.7 120 105 120 C105 134.85 105 149.7 105 165 C100.05 165 95.1 165 90 165 C90 169.95 90 174.9 90 180 C80.1 180 70.2 180 60 180 C60 184.95 60 189.9 60 195 C45.15 195 30.3 195 15 195 C15 199.95 15 204.9 15 210 C10.05 210 5.1 210 0 210 C0 214.95 0 219.9 0 225 C-4.95 225 -9.9 225 -15 225 C-15 229.95 -15 234.9 -15 240 C-19.95 240 -24.9 240 -30 240 C-30 244.95 -30 249.9 -30 255 C-34.95 255 -39.9 255 -45 255 C-45 264.9 -45 274.8 -45 285 C-49.95 285 -54.9 285 -60 285 C-60 289.95 -60 294.9 -60 300 C-64.95 300 -69.9 300 -75 300 C-75 304.95 -75 309.9 -75 315 C-99.75 315 -124.5 315 -150 315 C-150 295.2 -150 275.4 -150 255 C-154.95 255 -159.9 255 -165 255 C-165 250.05 -165 245.1 -165 240 C-160.05 240 -155.1 240 -150 240 C-150 230.1 -150 220.2 -150 210 C-145.05 210 -140.1 210 -135 210 C-135 205.05 -135 200.1 -135 195 C-130.05 195 -125.1 195 -120 195 C-120 185.1 -120 175.2 -120 165 C-115.05 165 -110.1 165 -105 165 C-105 155.1 -105 145.2 -105 135 C-100.05 135 -95.1 135 -90 135 C-90 120.15 -90 105.3 -90 90 C-85.05 90 -80.1 90 -75 90 C-75 75.15 -75 60.3 -75 45 C-70.05 45 -65.1 45 -60 45 C-60 40.05 -60 35.1 -60 30 C-55.05 30 -50.1 30 -45 30 C-45 25.05 -45 20.1 -45 15 C-30.15 15 -15.3 15 0 15 C0 10.05 0 5.1 0 0 Z " fill="#233155" transform="translate(1170,780)"/>
<path d="M0 0 C4.95 0 9.9 0 15 0 C15 29.7 15 59.4 15 90 C19.95 90 24.9 90 30 90 C30 99.9 30 109.8 30 120 C34.95 120 39.9 120 45 120 C45 412.05 45 704.1 45 1005 C40.05 1005 35.1 1005 30 1005 C30 1009.95 30 1014.9 30 1020 C25.05 1020 20.1 1020 15 1020 C15 990.3 15 960.6 15 930 C-4.8 930 -24.6 930 -45 930 C-45 925.05 -45 920.1 -45 915 C-25.2 915 -5.4 915 15 915 C15 850.65 15 786.3 15 720 C5.1 720 -4.8 720 -15 720 C-15 715.05 -15 710.1 -15 705 C-5.1 705 4.8 705 15 705 C15 670.35 15 635.7 15 600 C5.1 600 -4.8 600 -15 600 C-15 595.05 -15 590.1 -15 585 C-5.1 585 4.8 585 15 585 C15 530.55 15 476.1 15 420 C10.05 420 5.1 420 0 420 C0 415.05 0 410.1 0 405 C4.95 405 9.9 405 15 405 C15 365.4 15 325.8 15 285 C10.05 285 5.1 285 0 285 C0 280.05 0 275.1 0 270 C4.95 270 9.9 270 15 270 C15 250.2 15 230.4 15 210 C10.05 210 5.1 210 0 210 C0 205.05 0 200.1 0 195 C4.95 195 9.9 195 15 195 C15 170.25 15 145.5 15 120 C10.05 120 5.1 120 0 120 C0 80.4 0 40.8 0 0 Z " fill="#223B4D" transform="translate(2955,60)"/>
<path d="M0 0 C4.95 0 9.9 0 15 0 C15 69.3 15 138.6 15 210 C24.9 210 34.8 210 45 210 C45 214.95 45 219.9 45 225 C35.1 225 25.2 225 15 225 C15 319.05 15 413.1 15 510 C19.95 510 24.9 510 30 510 C30 514.95 30 519.9 30 525 C25.05 525 20.1 525 15 525 C15 589.35 15 653.7 15 720 C19.95 720 24.9 720 30 720 C30 724.95 30 729.9 30 735 C25.05 735 20.1 735 15 735 C15 754.8 15 774.6 15 795 C0.15 795 -14.7 795 -30 795 C-30 760.35 -30 725.7 -30 690 C-34.95 690 -39.9 690 -45 690 C-45 685.05 -45 680.1 -45 675 C-40.05 675 -35.1 675 -30 675 C-30 615.6 -30 556.2 -30 495 C-25.05 495 -20.1 495 -15 495 C-15 455.4 -15 415.8 -15 375 C-19.95 375 -24.9 375 -30 375 C-30 370.05 -30 365.1 -30 360 C-25.05 360 -20.1 360 -15 360 C-15 305.55 -15 251.1 -15 195 C-10.05 195 -5.1 195 0 195 C0 170.25 0 145.5 0 120 C-4.95 120 -9.9 120 -15 120 C-15 115.05 -15 110.1 -15 105 C-10.05 105 -5.1 105 0 105 C0 70.35 0 35.7 0 0 Z " fill="#223B4D" transform="translate(405,300)"/>
<path d="M0 0 C4.95 0 9.9 0 15 0 C15 19.8 15 39.6 15 60 C19.95 60 24.9 60 30 60 C30 84.75 30 109.5 30 135 C34.95 135 39.9 135 45 135 C45 149.85 45 164.7 45 180 C49.95 180 54.9 180 60 180 C60 184.95 60 189.9 60 195 C55.05 195 50.1 195 45 195 C45 209.85 45 224.7 45 240 C49.95 240 54.9 240 60 240 C60 259.8 60 279.6 60 300 C64.95 300 69.9 300 75 300 C75 295.05 75 290.1 75 285 C79.95 285 84.9 285 90 285 C90 270.15 90 255.3 90 240 C94.95 240 99.9 240 105 240 C105 235.05 105 230.1 105 225 C109.95 225 114.9 225 120 225 C120 220.05 120 215.1 120 210 C134.85 210 149.7 210 165 210 C165 205.05 165 200.1 165 195 C174.9 195 184.8 195 195 195 C195 199.95 195 204.9 195 210 C190.05 210 185.1 210 180 210 C180 214.95 180 219.9 180 225 C165.15 225 150.3 225 135 225 C135 229.95 135 234.9 135 240 C130.05 240 125.1 240 120 240 C120 244.95 120 249.9 120 255 C115.05 255 110.1 255 105 255 C105 269.85 105 284.7 105 300 C100.05 300 95.1 300 90 300 C90 314.85 90 329.7 90 345 C85.05 345 80.1 345 75 345 C75 354.9 75 364.8 75 375 C70.05 375 65.1 375 60 375 C60 384.9 60 394.8 60 405 C55.05 405 50.1 405 45 405 C45 409.95 45 414.9 45 420 C40.05 420 35.1 420 30 420 C30 429.9 30 439.8 30 450 C25.05 450 20.1 450 15 450 C15 454.95 15 459.9 15 465 C19.95 465 24.9 465 30 465 C30 484.8 30 504.6 30 525 C20.1 525 10.2 525 0 525 C0 515.1 0 505.2 0 495 C-4.95 495 -9.9 495 -15 495 C-15 460.35 -15 425.7 -15 390 C-10.05 390 -5.1 390 0 390 C0 375.15 0 360.3 0 345 C4.95 345 9.9 345 15 345 C15 340.05 15 335.1 15 330 C19.95 330 24.9 330 30 330 C30 315.15 30 300.3 30 285 C20.1 285 10.2 285 0 285 C0 280.05 0 275.1 0 270 C9.9 270 19.8 270 30 270 C30 260.1 30 250.2 30 240 C25.05 240 20.1 240 15 240 C15 200.4 15 160.8 15 120 C10.05 120 5.1 120 0 120 C0 115.05 0 110.1 0 105 C4.95 105 9.9 105 15 105 C15 95.1 15 85.2 15 75 C10.05 75 5.1 75 0 75 C0 50.25 0 25.5 0 0 Z " fill="#0B1A23" transform="translate(990,570)"/>
<path d="M0 0 C4.95 0 9.9 0 15 0 C15 29.7 15 59.4 15 90 C19.95 90 24.9 90 30 90 C30 94.95 30 99.9 30 105 C39.9 105 49.8 105 60 105 C60 109.95 60 114.9 60 120 C50.1 120 40.2 120 30 120 C30 169.5 30 219 30 270 C34.95 270 39.9 270 45 270 C45 289.8 45 309.6 45 330 C49.95 330 54.9 330 60 330 C60 339.9 60 349.8 60 360 C64.95 360 69.9 360 75 360 C75 364.95 75 369.9 75 375 C70.05 375 65.1 375 60 375 C60 429.45 60 483.9 60 540 C64.95 540 69.9 540 75 540 C75 569.7 75 599.4 75 630 C84.9 630 94.8 630 105 630 C105 634.95 105 639.9 105 645 C95.1 645 85.2 645 75 645 C75 664.8 75 684.6 75 705 C60.15 705 45.3 705 30 705 C30 625.8 30 546.6 30 465 C25.05 465 20.1 465 15 465 C15 460.05 15 455.1 15 450 C19.95 450 24.9 450 30 450 C30 425.25 30 400.5 30 375 C25.05 375 20.1 375 15 375 C15 325.5 15 276 15 225 C10.05 225 5.1 225 0 225 C0 220.05 0 215.1 0 210 C4.95 210 9.9 210 15 210 C15 190.2 15 170.4 15 150 C10.05 150 5.1 150 0 150 C0 100.5 0 51 0 0 Z " fill="#040208" transform="translate(195,375)"/>
<path d="M0 0 C4.95 0 9.9 0 15 0 C15 39.6 15 79.2 15 120 C19.95 120 24.9 120 30 120 C30 124.95 30 129.9 30 135 C25.05 135 20.1 135 15 135 C15 149.85 15 164.7 15 180 C10.05 180 5.1 180 0 180 C0 274.05 0 368.1 0 465 C4.95 465 9.9 465 15 465 C15 469.95 15 474.9 15 480 C10.05 480 5.1 480 0 480 C0 554.25 0 628.5 0 705 C-14.85 705 -29.7 705 -45 705 C-45 685.2 -45 665.4 -45 645 C-54.9 645 -64.8 645 -75 645 C-75 640.05 -75 635.1 -75 630 C-65.1 630 -55.2 630 -45 630 C-45 560.7 -45 491.4 -45 420 C-40.05 420 -35.1 420 -30 420 C-30 385.35 -30 350.7 -30 315 C-25.05 315 -20.1 315 -15 315 C-15 250.65 -15 186.3 -15 120 C-10.05 120 -5.1 120 0 120 C0 80.4 0 40.8 0 0 Z " fill="#040208" transform="translate(945,405)"/>
<path d="M0 0 C4.95 0 9.9 0 15 0 C15 39.6 15 79.2 15 120 C19.95 120 24.9 120 30 120 C30 164.55 30 209.1 30 255 C34.95 255 39.9 255 45 255 C45 259.95 45 264.9 45 270 C54.9 270 64.8 270 75 270 C75 274.95 75 279.9 75 285 C65.1 285 55.2 285 45 285 C45 388.95 45 492.9 45 600 C59.85 600 74.7 600 90 600 C90 604.95 90 609.9 90 615 C80.1 615 70.2 615 60 615 C60 649.65 60 684.3 60 720 C45.15 720 30.3 720 15 720 C15 630.9 15 541.8 15 450 C10.05 450 5.1 450 0 450 C0 440.1 0 430.2 0 420 C4.95 420 9.9 420 15 420 C15 350.7 15 281.4 15 210 C10.05 210 5.1 210 0 210 C0 190.2 0 170.4 0 150 C-4.95 150 -9.9 150 -15 150 C-15 145.05 -15 140.1 -15 135 C-10.05 135 -5.1 135 0 135 C0 90.45 0 45.9 0 0 Z " fill="#040208" transform="translate(2205,360)"/>
<path d="M0 0 C4.95 0 9.9 0 15 0 C15 14.85 15 29.7 15 45 C19.95 45 24.9 45 30 45 C30 64.8 30 84.6 30 105 C34.95 105 39.9 105 45 105 C45 109.95 45 114.9 45 120 C54.9 120 64.8 120 75 120 C75 124.95 75 129.9 75 135 C65.1 135 55.2 135 45 135 C45 149.85 45 164.7 45 180 C49.95 180 54.9 180 60 180 C60 199.8 60 219.6 60 240 C64.95 240 69.9 240 75 240 C75 259.8 75 279.6 75 300 C84.9 300 94.8 300 105 300 C105 304.95 105 309.9 105 315 C95.1 315 85.2 315 75 315 C75 324.9 75 334.8 75 345 C79.95 345 84.9 345 90 345 C90 364.8 90 384.6 90 405 C94.95 405 99.9 405 105 405 C105 434.7 105 464.4 105 495 C109.95 495 114.9 495 120 495 C120 514.8 120 534.6 120 555 C129.9 555 139.8 555 150 555 C150 559.95 150 564.9 150 570 C145.05 570 140.1 570 135 570 C135 584.85 135 599.7 135 615 C139.95 615 144.9 615 150 615 C150 629.85 150 644.7 150 660 C130.2 660 110.4 660 90 660 C90 650.1 90 640.2 90 630 C94.95 630 99.9 630 105 630 C105 600.3 105 570.6 105 540 C100.05 540 95.1 540 90 540 C90 535.05 90 530.1 90 525 C85.05 525 80.1 525 75 525 C75 520.05 75 515.1 75 510 C79.95 510 84.9 510 90 510 C90 495.15 90 480.3 90 465 C85.05 465 80.1 465 75 465 C75 440.25 75 415.5 75 390 C70.05 390 65.1 390 60 390 C60 365.25 60 340.5 60 315 C55.05 315 50.1 315 45 315 C45 295.2 45 275.4 45 255 C40.05 255 35.1 255 30 255 C30 250.05 30 245.1 30 240 C15.15 240 0.3 240 -15 240 C-15 235.05 -15 230.1 -15 225 C-0.15 225 14.7 225 30 225 C30 200.25 30 175.5 30 150 C25.05 150 20.1 150 15 150 C15 125.25 15 100.5 15 75 C10.05 75 5.1 75 0 75 C0 50.25 0 25.5 0 0 Z " fill="#223B4D" transform="translate(1635,420)"/>
<path d="M0 0 C4.95 0 9.9 0 15 0 C15 44.55 15 89.1 15 135 C19.95 135 24.9 135 30 135 C30 139.95 30 144.9 30 150 C25.05 150 20.1 150 15 150 C15 174.75 15 199.5 15 225 C10.05 225 5.1 225 0 225 C0 229.95 0 234.9 0 240 C4.95 240 9.9 240 15 240 C15 289.5 15 339 15 390 C19.95 390 24.9 390 30 390 C30 394.95 30 399.9 30 405 C25.05 405 20.1 405 15 405 C15 419.85 15 434.7 15 450 C24.9 450 34.8 450 45 450 C45 454.95 45 459.9 45 465 C35.1 465 25.2 465 15 465 C15 484.8 15 504.6 15 525 C19.95 525 24.9 525 30 525 C30 529.95 30 534.9 30 540 C25.05 540 20.1 540 15 540 C15 564.75 15 589.5 15 615 C19.95 615 24.9 615 30 615 C30 619.95 30 624.9 30 630 C34.95 630 39.9 630 45 630 C45 634.95 45 639.9 45 645 C40.05 645 35.1 645 30 645 C30 659.85 30 674.7 30 690 C15.15 690 0.3 690 -15 690 C-15 675.15 -15 660.3 -15 645 C-19.95 645 -24.9 645 -30 645 C-30 640.05 -30 635.1 -30 630 C-25.05 630 -20.1 630 -15 630 C-15 610.2 -15 590.4 -15 570 C-10.05 570 -5.1 570 0 570 C0 565.05 0 560.1 0 555 C-4.95 555 -9.9 555 -15 555 C-15 470.85 -15 386.7 -15 300 C-19.95 300 -24.9 300 -30 300 C-30 295.05 -30 290.1 -30 285 C-25.05 285 -20.1 285 -15 285 C-15 255.3 -15 225.6 -15 195 C-10.05 195 -5.1 195 0 195 C0 130.65 0 66.3 0 0 Z " fill="#040208" transform="translate(2700,360)"/>
<path d="M0 0 C4.95 0 9.9 0 15 0 C15 64.35 15 128.7 15 195 C24.9 195 34.8 195 45 195 C45 199.95 45 204.9 45 210 C35.1 210 25.2 210 15 210 C15 214.95 15 219.9 15 225 C10.05 225 5.1 225 0 225 C0 264.6 0 304.2 0 345 C-4.95 345 -9.9 345 -15 345 C-15 369.75 -15 394.5 -15 420 C-0.15 420 14.7 420 30 420 C30 424.95 30 429.9 30 435 C15.15 435 0.3 435 -15 435 C-15 464.7 -15 494.4 -15 525 C-29.85 525 -44.7 525 -60 525 C-60 500.25 -60 475.5 -60 450 C-55.05 450 -50.1 450 -45 450 C-45 405.45 -45 360.9 -45 315 C-40.05 315 -35.1 315 -30 315 C-30 270.45 -30 225.9 -30 180 C-25.05 180 -20.1 180 -15 180 C-15 165.15 -15 150.3 -15 135 C-10.05 135 -5.1 135 0 135 C0 130.05 0 125.1 0 120 C-4.95 120 -9.9 120 -15 120 C-15 115.05 -15 110.1 -15 105 C-10.05 105 -5.1 105 0 105 C0 70.35 0 35.7 0 0 Z " fill="#0A071D" transform="translate(120,570)"/>
<path d="M0 0 C4.95 0 9.9 0 15 0 C15 24.75 15 49.5 15 75 C19.95 75 24.9 75 30 75 C30 79.95 30 84.9 30 90 C25.05 90 20.1 90 15 90 C15 104.85 15 119.7 15 135 C19.95 135 24.9 135 30 135 C30 194.4 30 253.8 30 315 C34.95 315 39.9 315 45 315 C45 319.95 45 324.9 45 330 C40.05 330 35.1 330 30 330 C30 349.8 30 369.6 30 390 C34.95 390 39.9 390 45 390 C45 434.55 45 479.1 45 525 C30.15 525 15.3 525 0 525 C0 485.4 0 445.8 0 405 C-4.95 405 -9.9 405 -15 405 C-15 395.1 -15 385.2 -15 375 C-10.05 375 -5.1 375 0 375 C0 315.6 0 256.2 0 195 C-4.95 195 -9.9 195 -15 195 C-15 190.05 -15 185.1 -15 180 C-10.05 180 -5.1 180 0 180 C0 120.6 0 61.2 0 0 Z " fill="#0A071D" transform="translate(1440,540)"/>
<path d="M0 0 C4.95 0 9.9 0 15 0 C15 89.1 15 178.2 15 270 C19.95 270 24.9 270 30 270 C30 274.95 30 279.9 30 285 C25.05 285 20.1 285 15 285 C15 334.5 15 384 15 435 C24.9 435 34.8 435 45 435 C45 439.95 45 444.9 45 450 C35.1 450 25.2 450 15 450 C15 474.75 15 499.5 15 525 C5.1 525 -4.8 525 -15 525 C-15 529.95 -15 534.9 -15 540 C-19.95 540 -24.9 540 -30 540 C-30 495.45 -30 450.9 -30 405 C-25.05 405 -20.1 405 -15 405 C-15 390.15 -15 375.3 -15 360 C-24.9 360 -34.8 360 -45 360 C-45 355.05 -45 350.1 -45 345 C-35.1 345 -25.2 345 -15 345 C-15 290.55 -15 236.1 -15 180 C-10.05 180 -5.1 180 0 180 C0 150.3 0 120.6 0 90 C-4.95 90 -9.9 90 -15 90 C-15 85.05 -15 80.1 -15 75 C-10.05 75 -5.1 75 0 75 C0 50.25 0 25.5 0 0 Z " fill="#0A071D" transform="translate(2085,555)"/>
<path d="M0 0 C4.95 0 9.9 0 15 0 C15 29.7 15 59.4 15 90 C10.05 90 5.1 90 0 90 C0 109.8 0 129.6 0 150 C-4.95 150 -9.9 150 -15 150 C-15 164.85 -15 179.7 -15 195 C-10.05 195 -5.1 195 0 195 C0 199.95 0 204.9 0 210 C-9.9 210 -19.8 210 -30 210 C-30 234.75 -30 259.5 -30 285 C-34.95 285 -39.9 285 -45 285 C-45 304.8 -45 324.6 -45 345 C-49.95 345 -54.9 345 -60 345 C-60 359.85 -60 374.7 -60 390 C-64.95 390 -69.9 390 -75 390 C-75 414.75 -75 439.5 -75 465 C-79.95 465 -84.9 465 -90 465 C-90 469.95 -90 474.9 -90 480 C-99.9 480 -109.8 480 -120 480 C-120 470.1 -120 460.2 -120 450 C-115.05 450 -110.1 450 -105 450 C-105 445.05 -105 440.1 -105 435 C-109.95 435 -114.9 435 -120 435 C-120 430.05 -120 425.1 -120 420 C-115.05 420 -110.1 420 -105 420 C-105 415.05 -105 410.1 -105 405 C-109.95 405 -114.9 405 -120 405 C-120 400.05 -120 395.1 -120 390 C-110.1 390 -100.2 390 -90 390 C-90 370.2 -90 350.4 -90 330 C-85.05 330 -80.1 330 -75 330 C-75 315.15 -75 300.3 -75 285 C-79.95 285 -84.9 285 -90 285 C-90 280.05 -90 275.1 -90 270 C-85.05 270 -80.1 270 -75 270 C-75 265.05 -75 260.1 -75 255 C-70.05 255 -65.1 255 -60 255 C-60 245.1 -60 235.2 -60 225 C-55.05 225 -50.1 225 -45 225 C-45 200.25 -45 175.5 -45 150 C-40.05 150 -35.1 150 -30 150 C-30 135.15 -30 120.3 -30 105 C-25.05 105 -20.1 105 -15 105 C-15 85.2 -15 65.4 -15 45 C-10.05 45 -5.1 45 0 45 C0 30.15 0 15.3 0 0 Z " fill="#223B4D" transform="translate(2505,600)"/>
<path d="M0 0 C4.95 0 9.9 0 15 0 C15 49.5 15 99 15 150 C19.95 150 24.9 150 30 150 C30 239.1 30 328.2 30 420 C39.9 420 49.8 420 60 420 C60 424.95 60 429.9 60 435 C50.1 435 40.2 435 30 435 C30 449.85 30 464.7 30 480 C34.95 480 39.9 480 45 480 C45 494.85 45 509.7 45 525 C40.05 525 35.1 525 30 525 C30 520.05 30 515.1 30 510 C20.1 510 10.2 510 0 510 C0 495.15 0 480.3 0 465 C-4.95 465 -9.9 465 -15 465 C-15 460.05 -15 455.1 -15 450 C-10.05 450 -5.1 450 0 450 C0 410.4 0 370.8 0 330 C-4.95 330 -9.9 330 -15 330 C-15 325.05 -15 320.1 -15 315 C-10.05 315 -5.1 315 0 315 C0 211.05 0 107.1 0 0 Z " fill="#0A071D" transform="translate(585,585)"/>
<path d="M0 0 C94.05 0 188.1 0 285 0 C285 4.95 285 9.9 285 15 C289.95 15 294.9 15 300 15 C300 19.95 300 24.9 300 30 C290.1 30 280.2 30 270 30 C270 34.95 270 39.9 270 45 C175.95 45 81.9 45 -15 45 C-15 40.05 -15 35.1 -15 30 C-24.9 30 -34.8 30 -45 30 C-45 25.05 -45 20.1 -45 15 C-30.15 15 -15.3 15 0 15 C0 10.05 0 5.1 0 0 Z " fill="#B3B8CF" transform="translate(1305,1065)"/>
<path d="M0 0 C4.95 0 9.9 0 15 0 C15 19.8 15 39.6 15 60 C19.95 60 24.9 60 30 60 C30 74.85 30 89.7 30 105 C34.95 105 39.9 105 45 105 C45 114.9 45 124.8 45 135 C49.95 135 54.9 135 60 135 C60 139.95 60 144.9 60 150 C55.05 150 50.1 150 45 150 C45 184.65 45 219.3 45 255 C49.95 255 54.9 255 60 255 C60 269.85 60 284.7 60 300 C64.95 300 69.9 300 75 300 C75 304.95 75 309.9 75 315 C70.05 315 65.1 315 60 315 C60 339.75 60 364.5 60 390 C64.95 390 69.9 390 75 390 C75 409.8 75 429.6 75 450 C65.1 450 55.2 450 45 450 C45 440.1 45 430.2 45 420 C40.05 420 35.1 420 30 420 C30 415.05 30 410.1 30 405 C34.95 405 39.9 405 45 405 C45 390.15 45 375.3 45 360 C40.05 360 35.1 360 30 360 C30 325.35 30 290.7 30 255 C25.05 255 20.1 255 15 255 C15 250.05 15 245.1 15 240 C19.95 240 24.9 240 30 240 C30 235.05 30 230.1 30 225 C20.1 225 10.2 225 0 225 C0 220.05 0 215.1 0 210 C9.9 210 19.8 210 30 210 C30 205.05 30 200.1 30 195 C25.05 195 20.1 195 15 195 C15 155.4 15 115.8 15 75 C10.05 75 5.1 75 0 75 C0 50.25 0 25.5 0 0 Z " fill="#0A071D" transform="translate(2745,615)"/>
<path d="M0 0 C4.95 0 9.9 0 15 0 C15 19.8 15 39.6 15 60 C19.95 60 24.9 60 30 60 C30 84.75 30 109.5 30 135 C34.95 135 39.9 135 45 135 C45 149.85 45 164.7 45 180 C49.95 180 54.9 180 60 180 C60 184.95 60 189.9 60 195 C55.05 195 50.1 195 45 195 C45 209.85 45 224.7 45 240 C49.95 240 54.9 240 60 240 C60 264.75 60 289.5 60 315 C55.05 315 50.1 315 45 315 C45 319.95 45 324.9 45 330 C40.05 330 35.1 330 30 330 C30 315.15 30 300.3 30 285 C20.1 285 10.2 285 0 285 C0 280.05 0 275.1 0 270 C9.9 270 19.8 270 30 270 C30 260.1 30 250.2 30 240 C25.05 240 20.1 240 15 240 C15 200.4 15 160.8 15 120 C10.05 120 5.1 120 0 120 C0 115.05 0 110.1 0 105 C4.95 105 9.9 105 15 105 C15 95.1 15 85.2 15 75 C10.05 75 5.1 75 0 75 C0 50.25 0 25.5 0 0 Z " fill="#0A071D" transform="translate(990,570)"/>
<path d="M0 0 C14.85 0 29.7 0 45 0 C45 4.95 45 9.9 45 15 C129.15 15 213.3 15 300 15 C300 10.05 300 5.1 300 0 C314.85 0 329.7 0 345 0 C345 4.95 345 9.9 345 15 C335.1 15 325.2 15 315 15 C315 19.95 315 24.9 315 30 C220.95 30 126.9 30 30 30 C30 25.05 30 20.1 30 15 C20.1 15 10.2 15 0 15 C0 10.05 0 5.1 0 0 Z " fill="#8E92B1" transform="translate(1260,1080)"/>
<path d="M0 0 C94.05 0 188.1 0 285 0 C285 4.95 285 9.9 285 15 C190.95 15 96.9 15 0 15 C0 10.05 0 5.1 0 0 Z " fill="#667093" transform="translate(1290,1110)"/>
<path d="M0 0 C14.85 0 29.7 0 45 0 C45 4.95 45 9.9 45 15 C40.05 15 35.1 15 30 15 C30 24.9 30 34.8 30 45 C25.05 45 20.1 45 15 45 C15 49.95 15 54.9 15 60 C10.05 60 5.1 60 0 60 C0 69.9 0 79.8 0 90 C-9.9 90 -19.8 90 -30 90 C-30 70.2 -30 50.4 -30 30 C-25.05 30 -20.1 30 -15 30 C-15 25.05 -15 20.1 -15 15 C-10.05 15 -5.1 15 0 15 C0 10.05 0 5.1 0 0 Z " fill="#233155" transform="translate(1125,795)"/>
<path d="M0 0 C4.95 0 9.9 0 15 0 C15 9.9 15 19.8 15 30 C10.05 30 5.1 30 0 30 C0 34.95 0 39.9 0 45 C-9.9 45 -19.8 45 -30 45 C-30 49.95 -30 54.9 -30 60 C-44.85 60 -59.7 60 -75 60 C-75 64.95 -75 69.9 -75 75 C-79.95 75 -84.9 75 -90 75 C-90 79.95 -90 84.9 -90 90 C-94.95 90 -99.9 90 -105 90 C-105 80.1 -105 70.2 -105 60 C-100.05 60 -95.1 60 -90 60 C-90 55.05 -90 50.1 -90 45 C-85.05 45 -80.1 45 -75 45 C-75 40.05 -75 35.1 -75 30 C-60.15 30 -45.3 30 -30 30 C-30 25.05 -30 20.1 -30 15 C-20.1 15 -10.2 15 0 15 C0 10.05 0 5.1 0 0 Z " fill="#38566B" transform="translate(1260,915)"/>
<path d="M0 0 C4.95 0 9.9 0 15 0 C15 4.95 15 9.9 15 15 C24.9 15 34.8 15 45 15 C45 24.9 45 34.8 45 45 C49.95 45 54.9 45 60 45 C60 49.95 60 54.9 60 60 C50.1 60 40.2 60 30 60 C30 55.05 30 50.1 30 45 C25.05 45 20.1 45 15 45 C15 49.95 15 54.9 15 60 C5.1 60 -4.8 60 -15 60 C-15 55.05 -15 50.1 -15 45 C-24.9 45 -34.8 45 -45 45 C-45 40.05 -45 35.1 -45 30 C-40.05 30 -35.1 30 -30 30 C-30 25.05 -30 20.1 -30 15 C-20.1 15 -10.2 15 0 15 C0 10.05 0 5.1 0 0 Z " fill="#3E5A76" transform="translate(1335,900)"/>
<path d="M0 0 C9.9 0 19.8 0 30 0 C30 9.9 30 19.8 30 30 C20.1 30 10.2 30 0 30 C0 34.95 0 39.9 0 45 C-4.95 45 -9.9 45 -15 45 C-15 49.95 -15 54.9 -15 60 C-19.95 60 -24.9 60 -30 60 C-30 64.95 -30 69.9 -30 75 C-34.95 75 -39.9 75 -45 75 C-45 84.9 -45 94.8 -45 105 C-54.9 105 -64.8 105 -75 105 C-75 100.05 -75 95.1 -75 90 C-70.05 90 -65.1 90 -60 90 C-60 80.1 -60 70.2 -60 60 C-55.05 60 -50.1 60 -45 60 C-45 55.05 -45 50.1 -45 45 C-40.05 45 -35.1 45 -30 45 C-30 40.05 -30 35.1 -30 30 C-25.05 30 -20.1 30 -15 30 C-15 25.05 -15 20.1 -15 15 C-10.05 15 -5.1 15 0 15 C0 10.05 0 5.1 0 0 Z " fill="#0A061B" transform="translate(1185,975)"/>
<path d="M0 0 C4.95 0 9.9 0 15 0 C15 4.95 15 9.9 15 15 C19.95 15 24.9 15 30 15 C30 34.8 30 54.6 30 75 C15.15 75 0.3 75 -15 75 C-15 55.2 -15 35.4 -15 15 C-10.05 15 -5.1 15 0 15 C0 10.05 0 5.1 0 0 Z " fill="#233155" transform="translate(1350,945)"/>
<path d="M0 0 C9.9 0 19.8 0 30 0 C30 9.9 30 19.8 30 30 C25.05 30 20.1 30 15 30 C15 34.95 15 39.9 15 45 C10.05 45 5.1 45 0 45 C0 59.85 0 74.7 0 90 C-9.9 90 -19.8 90 -30 90 C-30 94.95 -30 99.9 -30 105 C-34.95 105 -39.9 105 -45 105 C-45 95.1 -45 85.2 -45 75 C-40.05 75 -35.1 75 -30 75 C-30 70.05 -30 65.1 -30 60 C-25.05 60 -20.1 60 -15 60 C-15 50.1 -15 40.2 -15 30 C-10.05 30 -5.1 30 0 30 C0 20.1 0 10.2 0 0 Z " fill="#3B5A76" transform="translate(1170,780)"/>
<path d="M0 0 C4.95 0 9.9 0 15 0 C15 14.85 15 29.7 15 45 C19.95 45 24.9 45 30 45 C30 49.95 30 54.9 30 60 C10.2 60 -9.6 60 -30 60 C-30 50.1 -30 40.2 -30 30 C-25.05 30 -20.1 30 -15 30 C-15 25.05 -15 20.1 -15 15 C-10.05 15 -5.1 15 0 15 C0 10.05 0 5.1 0 0 Z " fill="#121536" transform="translate(1170,1020)"/>
<path d="M0 0 C4.95 0 9.9 0 15 0 C15 19.8 15 39.6 15 60 C0.15 60 -14.7 60 -30 60 C-30 45.15 -30 30.3 -30 15 C-20.1 15 -10.2 15 0 15 C0 10.05 0 5.1 0 0 Z " fill="#141E36" transform="translate(2670,930)"/>
<path d="M0 0 C14.85 0 29.7 0 45 0 C45 4.95 45 9.9 45 15 C49.95 15 54.9 15 60 15 C60 19.95 60 24.9 60 30 C50.1 30 40.2 30 30 30 C30 25.05 30 20.1 30 15 C25.05 15 20.1 15 15 15 C15 19.95 15 24.9 15 30 C5.1 30 -4.8 30 -15 30 C-15 25.05 -15 20.1 -15 15 C-10.05 15 -5.1 15 0 15 C0 10.05 0 5.1 0 0 Z " fill="#AB916B" transform="translate(1335,930)"/>
<path d="M0 0 C9.9 0 19.8 0 30 0 C30 4.95 30 9.9 30 15 C25.05 15 20.1 15 15 15 C15 19.95 15 24.9 15 30 C10.05 30 5.1 30 0 30 C0 39.9 0 49.8 0 60 C-9.9 60 -19.8 60 -30 60 C-30 55.05 -30 50.1 -30 45 C-25.05 45 -20.1 45 -15 45 C-15 35.1 -15 25.2 -15 15 C-10.05 15 -5.1 15 0 15 C0 10.05 0 5.1 0 0 Z " fill="#1A2644" transform="translate(1125,825)"/>
<path d="M0 0 C14.85 0 29.7 0 45 0 C45 4.95 45 9.9 45 15 C35.1 15 25.2 15 15 15 C15 19.95 15 24.9 15 30 C-4.8 30 -24.6 30 -45 30 C-45 25.05 -45 20.1 -45 15 C-30.15 15 -15.3 15 0 15 C0 10.05 0 5.1 0 0 Z " fill="#223B4D" transform="translate(480,780)"/>
<path d="M0 0 C4.95 0 9.9 0 15 0 C15 14.85 15 29.7 15 45 C19.95 45 24.9 45 30 45 C30 54.9 30 64.8 30 75 C25.05 75 20.1 75 15 75 C15 70.05 15 65.1 15 60 C10.05 60 5.1 60 0 60 C0 40.2 0 20.4 0 0 Z " fill="#2A2553" transform="translate(1185,1005)"/>
<path d="M0 0 C9.9 0 19.8 0 30 0 C30 9.9 30 19.8 30 30 C25.05 30 20.1 30 15 30 C15 34.95 15 39.9 15 45 C5.1 45 -4.8 45 -15 45 C-15 40.05 -15 35.1 -15 30 C-10.05 30 -5.1 30 0 30 C0 20.1 0 10.2 0 0 Z " fill="#38566B" transform="translate(1170,780)"/>
<path d="M0 0 C9.9 0 19.8 0 30 0 C30 4.95 30 9.9 30 15 C34.95 15 39.9 15 45 15 C45 19.95 45 24.9 45 30 C25.2 30 5.4 30 -15 30 C-15 25.05 -15 20.1 -15 15 C-10.05 15 -5.1 15 0 15 C0 10.05 0 5.1 0 0 Z " fill="#223B4D" transform="translate(1755,690)"/>
<path d="M0 0 C4.95 0 9.9 0 15 0 C15 24.75 15 49.5 15 75 C10.05 75 5.1 75 0 75 C0 65.1 0 55.2 0 45 C-4.95 45 -9.9 45 -15 45 C-15 40.05 -15 35.1 -15 30 C-10.05 30 -5.1 30 0 30 C0 20.1 0 10.2 0 0 Z " fill="#223B4D" transform="translate(1620,345)"/>
<path d="M0 0 C9.9 0 19.8 0 30 0 C30 4.95 30 9.9 30 15 C39.9 15 49.8 15 60 15 C60 19.95 60 24.9 60 30 C45.15 30 30.3 30 15 30 C15 25.05 15 20.1 15 15 C10.05 15 5.1 15 0 15 C0 10.05 0 5.1 0 0 Z " fill="#667093" transform="translate(1230,1080)"/>
<path d="M0 0 C4.95 0 9.9 0 15 0 C15 4.95 15 9.9 15 15 C19.95 15 24.9 15 30 15 C30 19.95 30 24.9 30 30 C25.05 30 20.1 30 15 30 C15 34.95 15 39.9 15 45 C10.05 45 5.1 45 0 45 C0 40.05 0 35.1 0 30 C-4.95 30 -9.9 30 -15 30 C-15 25.05 -15 20.1 -15 15 C-10.05 15 -5.1 15 0 15 C0 10.05 0 5.1 0 0 Z " fill="#658296" transform="translate(1920,975)"/>
<path d="M0 0 C4.95 0 9.9 0 15 0 C15 4.95 15 9.9 15 15 C19.95 15 24.9 15 30 15 C30 19.95 30 24.9 30 30 C25.05 30 20.1 30 15 30 C15 34.95 15 39.9 15 45 C10.05 45 5.1 45 0 45 C0 40.05 0 35.1 0 30 C-4.95 30 -9.9 30 -15 30 C-15 25.05 -15 20.1 -15 15 C-10.05 15 -5.1 15 0 15 C0 10.05 0 5.1 0 0 Z " fill="#658296" transform="translate(705,960)"/>
<path d="M0 0 C4.95 0 9.9 0 15 0 C15 4.95 15 9.9 15 15 C19.95 15 24.9 15 30 15 C30 19.95 30 24.9 30 30 C25.05 30 20.1 30 15 30 C15 34.95 15 39.9 15 45 C10.05 45 5.1 45 0 45 C0 40.05 0 35.1 0 30 C-4.95 30 -9.9 30 -15 30 C-15 25.05 -15 20.1 -15 15 C-10.05 15 -5.1 15 0 15 C0 10.05 0 5.1 0 0 Z " fill="#658296" transform="translate(2910,885)"/>
<path d="M0 0 C4.95 0 9.9 0 15 0 C15 4.95 15 9.9 15 15 C19.95 15 24.9 15 30 15 C30 19.95 30 24.9 30 30 C25.05 30 20.1 30 15 30 C15 34.95 15 39.9 15 45 C10.05 45 5.1 45 0 45 C0 40.05 0 35.1 0 30 C-4.95 30 -9.9 30 -15 30 C-15 25.05 -15 20.1 -15 15 C-10.05 15 -5.1 15 0 15 C0 10.05 0 5.1 0 0 Z " fill="#658296" transform="translate(2370,780)"/>
<path d="M0 0 C4.95 0 9.9 0 15 0 C15 4.95 15 9.9 15 15 C19.95 15 24.9 15 30 15 C30 19.95 30 24.9 30 30 C25.05 30 20.1 30 15 30 C15 34.95 15 39.9 15 45 C10.05 45 5.1 45 0 45 C0 40.05 0 35.1 0 30 C-4.95 30 -9.9 30 -15 30 C-15 25.05 -15 20.1 -15 15 C-10.05 15 -5.1 15 0 15 C0 10.05 0 5.1 0 0 Z " fill="#658296" transform="translate(960,780)"/>
<path d="M0 0 C4.95 0 9.9 0 15 0 C15 4.95 15 9.9 15 15 C19.95 15 24.9 15 30 15 C30 19.95 30 24.9 30 30 C25.05 30 20.1 30 15 30 C15 34.95 15 39.9 15 45 C10.05 45 5.1 45 0 45 C0 40.05 0 35.1 0 30 C-4.95 30 -9.9 30 -15 30 C-15 25.05 -15 20.1 -15 15 C-10.05 15 -5.1 15 0 15 C0 10.05 0 5.1 0 0 Z " fill="#658296" transform="translate(330,780)"/>
<path d="M0 0 C4.95 0 9.9 0 15 0 C15 4.95 15 9.9 15 15 C19.95 15 24.9 15 30 15 C30 19.95 30 24.9 30 30 C25.05 30 20.1 30 15 30 C15 34.95 15 39.9 15 45 C10.05 45 5.1 45 0 45 C0 40.05 0 35.1 0 30 C-4.95 30 -9.9 30 -15 30 C-15 25.05 -15 20.1 -15 15 C-10.05 15 -5.1 15 0 15 C0 10.05 0 5.1 0 0 Z " fill="#658296" transform="translate(1575,720)"/>
<path d="M0 0 C4.95 0 9.9 0 15 0 C15 4.95 15 9.9 15 15 C19.95 15 24.9 15 30 15 C30 19.95 30 24.9 30 30 C25.05 30 20.1 30 15 30 C15 34.95 15 39.9 15 45 C10.05 45 5.1 45 0 45 C0 40.05 0 35.1 0 30 C-4.95 30 -9.9 30 -15 30 C-15 25.05 -15 20.1 -15 15 C-10.05 15 -5.1 15 0 15 C0 10.05 0 5.1 0 0 Z " fill="#658296" transform="translate(2640,705)"/>
<path d="M0 0 C4.95 0 9.9 0 15 0 C15 4.95 15 9.9 15 15 C19.95 15 24.9 15 30 15 C30 19.95 30 24.9 30 30 C25.05 30 20.1 30 15 30 C15 34.95 15 39.9 15 45 C10.05 45 5.1 45 0 45 C0 40.05 0 35.1 0 30 C-4.95 30 -9.9 30 -15 30 C-15 25.05 -15 20.1 -15 15 C-10.05 15 -5.1 15 0 15 C0 10.05 0 5.1 0 0 Z " fill="#658296" transform="translate(1305,540)"/>
<path d="M0 0 C4.95 0 9.9 0 15 0 C15 4.95 15 9.9 15 15 C19.95 15 24.9 15 30 15 C30 19.95 30 24.9 30 30 C25.05 30 20.1 30 15 30 C15 34.95 15 39.9 15 45 C10.05 45 5.1 45 0 45 C0 40.05 0 35.1 0 30 C-4.95 30 -9.9 30 -15 30 C-15 25.05 -15 20.1 -15 15 C-10.05 15 -5.1 15 0 15 C0 10.05 0 5.1 0 0 Z " fill="#658296" transform="translate(1530,495)"/>
<path d="M0 0 C4.95 0 9.9 0 15 0 C15 4.95 15 9.9 15 15 C19.95 15 24.9 15 30 15 C30 19.95 30 24.9 30 30 C25.05 30 20.1 30 15 30 C15 34.95 15 39.9 15 45 C10.05 45 5.1 45 0 45 C0 40.05 0 35.1 0 30 C-4.95 30 -9.9 30 -15 30 C-15 25.05 -15 20.1 -15 15 C-10.05 15 -5.1 15 0 15 C0 10.05 0 5.1 0 0 Z " fill="#658296" transform="translate(2850,435)"/>
<path d="M0 0 C4.95 0 9.9 0 15 0 C15 4.95 15 9.9 15 15 C19.95 15 24.9 15 30 15 C30 19.95 30 24.9 30 30 C25.05 30 20.1 30 15 30 C15 34.95 15 39.9 15 45 C10.05 45 5.1 45 0 45 C0 40.05 0 35.1 0 30 C-4.95 30 -9.9 30 -15 30 C-15 25.05 -15 20.1 -15 15 C-10.05 15 -5.1 15 0 15 C0 10.05 0 5.1 0 0 Z " fill="#658296" transform="translate(75,420)"/>
<path d="M0 0 C4.95 0 9.9 0 15 0 C15 4.95 15 9.9 15 15 C19.95 15 24.9 15 30 15 C30 19.95 30 24.9 30 30 C25.05 30 20.1 30 15 30 C15 34.95 15 39.9 15 45 C10.05 45 5.1 45 0 45 C0 40.05 0 35.1 0 30 C-4.95 30 -9.9 30 -15 30 C-15 25.05 -15 20.1 -15 15 C-10.05 15 -5.1 15 0 15 C0 10.05 0 5.1 0 0 Z " fill="#658296" transform="translate(585,405)"/>
<path d="M0 0 C4.95 0 9.9 0 15 0 C15 4.95 15 9.9 15 15 C19.95 15 24.9 15 30 15 C30 19.95 30 24.9 30 30 C25.05 30 20.1 30 15 30 C15 34.95 15 39.9 15 45 C10.05 45 5.1 45 0 45 C0 40.05 0 35.1 0 30 C-4.95 30 -9.9 30 -15 30 C-15 25.05 -15 20.1 -15 15 C-10.05 15 -5.1 15 0 15 C0 10.05 0 5.1 0 0 Z " fill="#658296" transform="translate(2490,375)"/>
<path d="M0 0 C4.95 0 9.9 0 15 0 C15 4.95 15 9.9 15 15 C19.95 15 24.9 15 30 15 C30 19.95 30 24.9 30 30 C25.05 30 20.1 30 15 30 C15 34.95 15 39.9 15 45 C10.05 45 5.1 45 0 45 C0 40.05 0 35.1 0 30 C-4.95 30 -9.9 30 -15 30 C-15 25.05 -15 20.1 -15 15 C-10.05 15 -5.1 15 0 15 C0 10.05 0 5.1 0 0 Z " fill="#658296" transform="translate(1935,360)"/>
<path d="M0 0 C4.95 0 9.9 0 15 0 C15 24.75 15 49.5 15 75 C10.05 75 5.1 75 0 75 C0 50.25 0 25.5 0 0 Z " fill="#223B4D" transform="translate(1605,270)"/>
<path d="M0 0 C4.95 0 9.9 0 15 0 C15 4.95 15 9.9 15 15 C19.95 15 24.9 15 30 15 C30 19.95 30 24.9 30 30 C25.05 30 20.1 30 15 30 C15 34.95 15 39.9 15 45 C10.05 45 5.1 45 0 45 C0 40.05 0 35.1 0 30 C-4.95 30 -9.9 30 -15 30 C-15 25.05 -15 20.1 -15 15 C-10.05 15 -5.1 15 0 15 C0 10.05 0 5.1 0 0 Z " fill="#658296" transform="translate(1185,210)"/>
<path d="M0 0 C4.95 0 9.9 0 15 0 C15 4.95 15 9.9 15 15 C19.95 15 24.9 15 30 15 C30 19.95 30 24.9 30 30 C25.05 30 20.1 30 15 30 C15 34.95 15 39.9 15 45 C10.05 45 5.1 45 0 45 C0 40.05 0 35.1 0 30 C-4.95 30 -9.9 30 -15 30 C-15 25.05 -15 20.1 -15 15 C-10.05 15 -5.1 15 0 15 C0 10.05 0 5.1 0 0 Z " fill="#658296" transform="translate(930,180)"/>
<path d="M0 0 C4.95 0 9.9 0 15 0 C15 4.95 15 9.9 15 15 C19.95 15 24.9 15 30 15 C30 19.95 30 24.9 30 30 C25.05 30 20.1 30 15 30 C15 34.95 15 39.9 15 45 C10.05 45 5.1 45 0 45 C0 40.05 0 35.1 0 30 C-4.95 30 -9.9 30 -15 30 C-15 25.05 -15 20.1 -15 15 C-10.05 15 -5.1 15 0 15 C0 10.05 0 5.1 0 0 Z " fill="#658296" transform="translate(2520,150)"/>
<path d="M0 0 C4.95 0 9.9 0 15 0 C15 4.95 15 9.9 15 15 C19.95 15 24.9 15 30 15 C30 19.95 30 24.9 30 30 C25.05 30 20.1 30 15 30 C15 34.95 15 39.9 15 45 C10.05 45 5.1 45 0 45 C0 40.05 0 35.1 0 30 C-4.95 30 -9.9 30 -15 30 C-15 25.05 -15 20.1 -15 15 C-10.05 15 -5.1 15 0 15 C0 10.05 0 5.1 0 0 Z " fill="#658296" transform="translate(2205,150)"/>
<path d="M0 0 C4.95 0 9.9 0 15 0 C15 4.95 15 9.9 15 15 C19.95 15 24.9 15 30 15 C30 19.95 30 24.9 30 30 C25.05 30 20.1 30 15 30 C15 34.95 15 39.9 15 45 C10.05 45 5.1 45 0 45 C0 40.05 0 35.1 0 30 C-4.95 30 -9.9 30 -15 30 C-15 25.05 -15 20.1 -15 15 C-10.05 15 -5.1 15 0 15 C0 10.05 0 5.1 0 0 Z " fill="#658296" transform="translate(2880,105)"/>
<path d="M0 0 C4.95 0 9.9 0 15 0 C15 4.95 15 9.9 15 15 C19.95 15 24.9 15 30 15 C30 19.95 30 24.9 30 30 C25.05 30 20.1 30 15 30 C15 34.95 15 39.9 15 45 C10.05 45 5.1 45 0 45 C0 40.05 0 35.1 0 30 C-4.95 30 -9.9 30 -15 30 C-15 25.05 -15 20.1 -15 15 C-10.05 15 -5.1 15 0 15 C0 10.05 0 5.1 0 0 Z " fill="#658296" transform="translate(1680,60)"/>
<path d="M0 0 C4.95 0 9.9 0 15 0 C15 4.95 15 9.9 15 15 C19.95 15 24.9 15 30 15 C30 19.95 30 24.9 30 30 C25.05 30 20.1 30 15 30 C15 34.95 15 39.9 15 45 C10.05 45 5.1 45 0 45 C0 40.05 0 35.1 0 30 C-4.95 30 -9.9 30 -15 30 C-15 25.05 -15 20.1 -15 15 C-10.05 15 -5.1 15 0 15 C0 10.05 0 5.1 0 0 Z " fill="#658296" transform="translate(255,60)"/>
<path d="M0 0 C19.8 0 39.6 0 60 0 C60 4.95 60 9.9 60 15 C40.2 15 20.4 15 0 15 C0 10.05 0 5.1 0 0 Z " fill="#223B4D" transform="translate(2850,960)"/>
<path d="M0 0 C19.8 0 39.6 0 60 0 C60 4.95 60 9.9 60 15 C40.2 15 20.4 15 0 15 C0 10.05 0 5.1 0 0 Z " fill="#223B4D" transform="translate(2880,750)"/>
<path d="M0 0 C4.95 0 9.9 0 15 0 C15 19.8 15 39.6 15 60 C10.05 60 5.1 60 0 60 C0 40.2 0 20.4 0 0 Z " fill="#223B4D" transform="translate(2520,540)"/>
<path d="M0 0 C14.85 0 29.7 0 45 0 C45 4.95 45 9.9 45 15 C30.15 15 15.3 15 0 15 C0 10.05 0 5.1 0 0 Z " fill="#0A071D" transform="translate(150,975)"/>
<path d="M0 0 C14.85 0 29.7 0 45 0 C45 4.95 45 9.9 45 15 C30.15 15 15.3 15 0 15 C0 10.05 0 5.1 0 0 Z " fill="#223B4D" transform="translate(315,960)"/>
<path d="M0 0 C14.85 0 29.7 0 45 0 C45 4.95 45 9.9 45 15 C30.15 15 15.3 15 0 15 C0 10.05 0 5.1 0 0 Z " fill="#223B4D" transform="translate(2460,945)"/>
<path d="M0 0 C9.9 0 19.8 0 30 0 C30 4.95 30 9.9 30 15 C25.05 15 20.1 15 15 15 C15 19.95 15 24.9 15 30 C10.05 30 5.1 30 0 30 C0 20.1 0 10.2 0 0 Z " fill="#233155" transform="translate(1275,915)"/>
<path d="M0 0 C4.95 0 9.9 0 15 0 C15 14.85 15 29.7 15 45 C10.05 45 5.1 45 0 45 C0 30.15 0 15.3 0 0 Z " fill="#223B4D" transform="translate(1590,225)"/>
<path d="M0 0 C9.9 0 19.8 0 30 0 C30 4.95 30 9.9 30 15 C20.1 15 10.2 15 0 15 C0 10.05 0 5.1 0 0 Z " fill="#667093" transform="translate(1575,1095)"/>
<path d="M0 0 C9.9 0 19.8 0 30 0 C30 4.95 30 9.9 30 15 C20.1 15 10.2 15 0 15 C0 10.05 0 5.1 0 0 Z " fill="#667093" transform="translate(1605,1080)"/>
<path d="M0 0 C9.9 0 19.8 0 30 0 C30 4.95 30 9.9 30 15 C20.1 15 10.2 15 0 15 C0 10.05 0 5.1 0 0 Z " fill="#040208" transform="translate(840,1020)"/>
<path d="M0 0 C9.9 0 19.8 0 30 0 C30 4.95 30 9.9 30 15 C20.1 15 10.2 15 0 15 C0 10.05 0 5.1 0 0 Z " fill="#0A071D" transform="translate(2745,1005)"/>
<path d="M0 0 C9.9 0 19.8 0 30 0 C30 4.95 30 9.9 30 15 C20.1 15 10.2 15 0 15 C0 10.05 0 5.1 0 0 Z " fill="#223B4D" transform="translate(435,1005)"/>
<path d="M0 0 C9.9 0 19.8 0 30 0 C30 4.95 30 9.9 30 15 C20.1 15 10.2 15 0 15 C0 10.05 0 5.1 0 0 Z " fill="#0A071D" transform="translate(645,990)"/>
<path d="M0 0 C9.9 0 19.8 0 30 0 C30 4.95 30 9.9 30 15 C20.1 15 10.2 15 0 15 C0 10.05 0 5.1 0 0 Z " fill="#223B4D" transform="translate(465,990)"/>
<path d="M0 0 C9.9 0 19.8 0 30 0 C30 4.95 30 9.9 30 15 C20.1 15 10.2 15 0 15 C0 10.05 0 5.1 0 0 Z " fill="#040208" transform="translate(300,990)"/>
<path d="M0 0 C9.9 0 19.8 0 30 0 C30 4.95 30 9.9 30 15 C20.1 15 10.2 15 0 15 C0 10.05 0 5.1 0 0 Z " fill="#040208" transform="translate(2640,975)"/>
<path d="M0 0 C9.9 0 19.8 0 30 0 C30 4.95 30 9.9 30 15 C20.1 15 10.2 15 0 15 C0 10.05 0 5.1 0 0 Z " fill="#223B4D" transform="translate(2355,975)"/>
<path d="M0 0 C9.9 0 19.8 0 30 0 C30 4.95 30 9.9 30 15 C20.1 15 10.2 15 0 15 C0 10.05 0 5.1 0 0 Z " fill="#0A071D" transform="translate(2130,975)"/>
<path d="M0 0 C4.95 0 9.9 0 15 0 C15 9.9 15 19.8 15 30 C10.05 30 5.1 30 0 30 C0 20.1 0 10.2 0 0 Z " fill="#BF9900" transform="translate(1350,975)"/>
<path d="M0 0 C9.9 0 19.8 0 30 0 C30 4.95 30 9.9 30 15 C20.1 15 10.2 15 0 15 C0 10.05 0 5.1 0 0 Z " fill="#223B4D" transform="translate(1785,960)"/>
<path d="M0 0 C9.9 0 19.8 0 30 0 C30 4.95 30 9.9 30 15 C20.1 15 10.2 15 0 15 C0 10.05 0 5.1 0 0 Z " fill="#040208" transform="translate(2295,945)"/>
<path d="M0 0 C9.9 0 19.8 0 30 0 C30 4.95 30 9.9 30 15 C20.1 15 10.2 15 0 15 C0 10.05 0 5.1 0 0 Z " fill="#223B4D" transform="translate(1815,945)"/>
<path d="M0 0 C9.9 0 19.8 0 30 0 C30 4.95 30 9.9 30 15 C20.1 15 10.2 15 0 15 C0 10.05 0 5.1 0 0 Z " fill="#A09A59" transform="translate(1365,945)"/>
<path d="M0 0 C9.9 0 19.8 0 30 0 C30 4.95 30 9.9 30 15 C20.1 15 10.2 15 0 15 C0 10.05 0 5.1 0 0 Z " fill="#829AB1" transform="translate(1320,945)"/>
<path d="M0 0 C9.9 0 19.8 0 30 0 C30 4.95 30 9.9 30 15 C20.1 15 10.2 15 0 15 C0 10.05 0 5.1 0 0 Z " fill="#223B4D" transform="translate(285,945)"/>
<path d="M0 0 C9.9 0 19.8 0 30 0 C30 4.95 30 9.9 30 15 C20.1 15 10.2 15 0 15 C0 10.05 0 5.1 0 0 Z " fill="#040208" transform="translate(2325,930)"/>
<path d="M0 0 C9.9 0 19.8 0 30 0 C30 4.95 30 9.9 30 15 C20.1 15 10.2 15 0 15 C0 10.05 0 5.1 0 0 Z " fill="#223B4D" transform="translate(1680,915)"/>
<path d="M0 0 C9.9 0 19.8 0 30 0 C30 4.95 30 9.9 30 15 C20.1 15 10.2 15 0 15 C0 10.05 0 5.1 0 0 Z " fill="#0A071D" transform="translate(2820,900)"/>
<path d="M0 0 C9.9 0 19.8 0 30 0 C30 4.95 30 9.9 30 15 C20.1 15 10.2 15 0 15 C0 10.05 0 5.1 0 0 Z " fill="#223B4D" transform="translate(1650,900)"/>
<path d="M0 0 C9.9 0 19.8 0 30 0 C30 4.95 30 9.9 30 15 C20.1 15 10.2 15 0 15 C0 10.05 0 5.1 0 0 Z " fill="#223B4D" transform="translate(1590,900)"/>
<path d="M0 0 C9.9 0 19.8 0 30 0 C30 4.95 30 9.9 30 15 C20.1 15 10.2 15 0 15 C0 10.05 0 5.1 0 0 Z " fill="#1A2644" transform="translate(1350,900)"/>
<path d="M0 0 C9.9 0 19.8 0 30 0 C30 4.95 30 9.9 30 15 C20.1 15 10.2 15 0 15 C0 10.05 0 5.1 0 0 Z " fill="#1A2644" transform="translate(1305,900)"/>
<path d="M0 0 C9.9 0 19.8 0 30 0 C30 4.95 30 9.9 30 15 C20.1 15 10.2 15 0 15 C0 10.05 0 5.1 0 0 Z " fill="#0A071D" transform="translate(2850,885)"/>
<path d="M0 0 C9.9 0 19.8 0 30 0 C30 4.95 30 9.9 30 15 C20.1 15 10.2 15 0 15 C0 10.05 0 5.1 0 0 Z " fill="#223B4D" transform="translate(1620,885)"/>
<path d="M0 0 C9.9 0 19.8 0 30 0 C30 4.95 30 9.9 30 15 C20.1 15 10.2 15 0 15 C0 10.05 0 5.1 0 0 Z " fill="#040208" transform="translate(2730,870)"/>
<path d="M0 0 C9.9 0 19.8 0 30 0 C30 4.95 30 9.9 30 15 C20.1 15 10.2 15 0 15 C0 10.05 0 5.1 0 0 Z " fill="#0A071D" transform="translate(45,870)"/>
<path d="M0 0 C9.9 0 19.8 0 30 0 C30 4.95 30 9.9 30 15 C20.1 15 10.2 15 0 15 C0 10.05 0 5.1 0 0 Z " fill="#223B4D" transform="translate(2385,855)"/>
<path d="M0 0 C9.9 0 19.8 0 30 0 C30 4.95 30 9.9 30 15 C20.1 15 10.2 15 0 15 C0 10.05 0 5.1 0 0 Z " fill="#0A071D" transform="translate(1485,840)"/>
<path d="M0 0 C9.9 0 19.8 0 30 0 C30 4.95 30 9.9 30 15 C20.1 15 10.2 15 0 15 C0 10.05 0 5.1 0 0 Z " fill="#0A071D" transform="translate(2715,810)"/>
<path d="M0 0 C9.9 0 19.8 0 30 0 C30 4.95 30 9.9 30 15 C20.1 15 10.2 15 0 15 C0 10.05 0 5.1 0 0 Z " fill="#223B4D" transform="translate(495,810)"/>
<path d="M0 0 C9.9 0 19.8 0 30 0 C30 4.95 30 9.9 30 15 C20.1 15 10.2 15 0 15 C0 10.05 0 5.1 0 0 Z " fill="#223B4D" transform="translate(2505,780)"/>
<path d="M0 0 C9.9 0 19.8 0 30 0 C30 4.95 30 9.9 30 15 C20.1 15 10.2 15 0 15 C0 10.05 0 5.1 0 0 Z " fill="#223B4D" transform="translate(525,765)"/>
<path d="M0 0 C9.9 0 19.8 0 30 0 C30 4.95 30 9.9 30 15 C20.1 15 10.2 15 0 15 C0 10.05 0 5.1 0 0 Z " fill="#223B4D" transform="translate(2850,735)"/>
<path d="M0 0 C9.9 0 19.8 0 30 0 C30 4.95 30 9.9 30 15 C20.1 15 10.2 15 0 15 C0 10.05 0 5.1 0 0 Z " fill="#223B4D" transform="translate(1800,720)"/>
<path d="M0 0 C9.9 0 19.8 0 30 0 C30 4.95 30 9.9 30 15 C20.1 15 10.2 15 0 15 C0 10.05 0 5.1 0 0 Z " fill="#0A071D" transform="translate(615,720)"/>
<path d="M0 0 C9.9 0 19.8 0 30 0 C30 4.95 30 9.9 30 15 C20.1 15 10.2 15 0 15 C0 10.05 0 5.1 0 0 Z " fill="#040208" transform="translate(270,720)"/>
<path d="M0 0 C9.9 0 19.8 0 30 0 C30 4.95 30 9.9 30 15 C20.1 15 10.2 15 0 15 C0 10.05 0 5.1 0 0 Z " fill="#040208" transform="translate(885,705)"/>
<path d="M0 0 C9.9 0 19.8 0 30 0 C30 4.95 30 9.9 30 15 C20.1 15 10.2 15 0 15 C0 10.05 0 5.1 0 0 Z " fill="#040208" transform="translate(855,690)"/>
<path d="M0 0 C9.9 0 19.8 0 30 0 C30 4.95 30 9.9 30 15 C20.1 15 10.2 15 0 15 C0 10.05 0 5.1 0 0 Z " fill="#223B4D" transform="translate(1785,675)"/>
<path d="M0 0 C4.95 0 9.9 0 15 0 C15 9.9 15 19.8 15 30 C10.05 30 5.1 30 0 30 C0 20.1 0 10.2 0 0 Z " fill="#223B4D" transform="translate(360,630)"/>
<path d="M0 0 C9.9 0 19.8 0 30 0 C30 4.95 30 9.9 30 15 C20.1 15 10.2 15 0 15 C0 10.05 0 5.1 0 0 Z " fill="#223B4D" transform="translate(1590,630)"/>
<path d="M0 0 C4.95 0 9.9 0 15 0 C15 9.9 15 19.8 15 30 C10.05 30 5.1 30 0 30 C0 20.1 0 10.2 0 0 Z " fill="#223B4D" transform="translate(2535,510)"/>
<path d="M0 0 C9.9 0 19.8 0 30 0 C30 4.95 30 9.9 30 15 C20.1 15 10.2 15 0 15 C0 10.05 0 5.1 0 0 Z " fill="#040208" transform="translate(975,510)"/>
<path d="M0 0 C9.9 0 19.8 0 30 0 C30 4.95 30 9.9 30 15 C20.1 15 10.2 15 0 15 C0 10.05 0 5.1 0 0 Z " fill="#040208" transform="translate(2730,480)"/>
<path d="M0 0 C4.95 0 9.9 0 15 0 C15 4.95 15 9.9 15 15 C10.05 15 5.1 15 0 15 C0 10.05 0 5.1 0 0 Z " fill="#87AAB0" transform="translate(2115,1035)"/>
<path d="M0 0 C4.95 0 9.9 0 15 0 C15 4.95 15 9.9 15 15 C10.05 15 5.1 15 0 15 C0 10.05 0 5.1 0 0 Z " fill="#A09A59" transform="translate(1380,1035)"/>
<path d="M0 0 C4.95 0 9.9 0 15 0 C15 4.95 15 9.9 15 15 C10.05 15 5.1 15 0 15 C0 10.05 0 5.1 0 0 Z " fill="#A09A59" transform="translate(1320,1035)"/>
<path d="M0 0 C4.95 0 9.9 0 15 0 C15 4.95 15 9.9 15 15 C10.05 15 5.1 15 0 15 C0 10.05 0 5.1 0 0 Z " fill="#87AAB0" transform="translate(2385,1020)"/>
<path d="M0 0 C4.95 0 9.9 0 15 0 C15 4.95 15 9.9 15 15 C10.05 15 5.1 15 0 15 C0 10.05 0 5.1 0 0 Z " fill="#A09A59" transform="translate(1410,1020)"/>
<path d="M0 0 C4.95 0 9.9 0 15 0 C15 4.95 15 9.9 15 15 C10.05 15 5.1 15 0 15 C0 10.05 0 5.1 0 0 Z " fill="#A09A59" transform="translate(1290,1020)"/>
<path d="M0 0 C4.95 0 9.9 0 15 0 C15 4.95 15 9.9 15 15 C10.05 15 5.1 15 0 15 C0 10.05 0 5.1 0 0 Z " fill="#87AAB0" transform="translate(240,1020)"/>
<path d="M0 0 C4.95 0 9.9 0 15 0 C15 4.95 15 9.9 15 15 C10.05 15 5.1 15 0 15 C0 10.05 0 5.1 0 0 Z " fill="#A09A59" transform="translate(1395,1005)"/>
<path d="M0 0 C4.95 0 9.9 0 15 0 C15 4.95 15 9.9 15 15 C10.05 15 5.1 15 0 15 C0 10.05 0 5.1 0 0 Z " fill="#A09A59" transform="translate(1305,1005)"/>
<path d="M0 0 C4.95 0 9.9 0 15 0 C15 4.95 15 9.9 15 15 C10.05 15 5.1 15 0 15 C0 10.05 0 5.1 0 0 Z " fill="#38566B" transform="translate(1140,1005)"/>
<path d="M0 0 C4.95 0 9.9 0 15 0 C15 4.95 15 9.9 15 15 C10.05 15 5.1 15 0 15 C0 10.05 0 5.1 0 0 Z " fill="#87AAB0" transform="translate(30,1005)"/>
<path d="M0 0 C4.95 0 9.9 0 15 0 C15 4.95 15 9.9 15 15 C10.05 15 5.1 15 0 15 C0 10.05 0 5.1 0 0 Z " fill="#0A071D" transform="translate(2730,990)"/>
<path d="M0 0 C4.95 0 9.9 0 15 0 C15 4.95 15 9.9 15 15 C10.05 15 5.1 15 0 15 C0 10.05 0 5.1 0 0 Z " fill="#A09A59" transform="translate(1410,990)"/>
<path d="M0 0 C4.95 0 9.9 0 15 0 C15 4.95 15 9.9 15 15 C10.05 15 5.1 15 0 15 C0 10.05 0 5.1 0 0 Z " fill="#A09A59" transform="translate(1290,990)"/>
<path d="M0 0 C4.95 0 9.9 0 15 0 C15 4.95 15 9.9 15 15 C10.05 15 5.1 15 0 15 C0 10.05 0 5.1 0 0 Z " fill="#A09A59" transform="translate(1395,975)"/>
<path d="M0 0 C4.95 0 9.9 0 15 0 C15 4.95 15 9.9 15 15 C10.05 15 5.1 15 0 15 C0 10.05 0 5.1 0 0 Z " fill="#A09A59" transform="translate(1305,975)"/>
<path d="M0 0 C4.95 0 9.9 0 15 0 C15 4.95 15 9.9 15 15 C10.05 15 5.1 15 0 15 C0 10.05 0 5.1 0 0 Z " fill="#0A071D" transform="translate(675,975)"/>
<path d="M0 0 C4.95 0 9.9 0 15 0 C15 4.95 15 9.9 15 15 C10.05 15 5.1 15 0 15 C0 10.05 0 5.1 0 0 Z " fill="#223B4D" transform="translate(300,975)"/>
<path d="M0 0 C4.95 0 9.9 0 15 0 C15 4.95 15 9.9 15 15 C10.05 15 5.1 15 0 15 C0 10.05 0 5.1 0 0 Z " fill="#040208" transform="translate(2625,960)"/>
<path d="M0 0 C4.95 0 9.9 0 15 0 C15 4.95 15 9.9 15 15 C10.05 15 5.1 15 0 15 C0 10.05 0 5.1 0 0 Z " fill="#223B4D" transform="translate(2505,960)"/>
<path d="M0 0 C4.95 0 9.9 0 15 0 C15 4.95 15 9.9 15 15 C10.05 15 5.1 15 0 15 C0 10.05 0 5.1 0 0 Z " fill="#A09A59" transform="translate(1410,960)"/>
<path d="M0 0 C4.95 0 9.9 0 15 0 C15 4.95 15 9.9 15 15 C10.05 15 5.1 15 0 15 C0 10.05 0 5.1 0 0 Z " fill="#A09A59" transform="translate(1290,960)"/>
<path d="M0 0 C4.95 0 9.9 0 15 0 C15 4.95 15 9.9 15 15 C10.05 15 5.1 15 0 15 C0 10.05 0 5.1 0 0 Z " fill="#87AAB0" transform="translate(810,960)"/>
<path d="M0 0 C4.95 0 9.9 0 15 0 C15 4.95 15 9.9 15 15 C10.05 15 5.1 15 0 15 C0 10.05 0 5.1 0 0 Z " fill="#87AAB0" transform="translate(480,960)"/>
<path d="M0 0 C4.95 0 9.9 0 15 0 C15 4.95 15 9.9 15 15 C10.05 15 5.1 15 0 15 C0 10.05 0 5.1 0 0 Z " fill="#9FBFBF" transform="translate(1620,945)"/>
<path d="M0 0 C4.95 0 9.9 0 15 0 C15 4.95 15 9.9 15 15 C10.05 15 5.1 15 0 15 C0 10.05 0 5.1 0 0 Z " fill="#829AB1" transform="translate(1365,945)"/>
<path d="M0 0 C4.95 0 9.9 0 15 0 C15 4.95 15 9.9 15 15 C10.05 15 5.1 15 0 15 C0 10.05 0 5.1 0 0 Z " fill="#A09A59" transform="translate(1320,945)"/>
<path d="M0 0 C4.95 0 9.9 0 15 0 C15 4.95 15 9.9 15 15 C10.05 15 5.1 15 0 15 C0 10.05 0 5.1 0 0 Z " fill="#87AAB0" transform="translate(1080,945)"/>
<path d="M0 0 C4.95 0 9.9 0 15 0 C15 4.95 15 9.9 15 15 C10.05 15 5.1 15 0 15 C0 10.05 0 5.1 0 0 Z " fill="#87AAB0" transform="translate(2565,930)"/>
<path d="M0 0 C4.95 0 9.9 0 15 0 C15 4.95 15 9.9 15 15 C10.05 15 5.1 15 0 15 C0 10.05 0 5.1 0 0 Z " fill="#223B4D" transform="translate(1845,930)"/>
<path d="M0 0 C4.95 0 9.9 0 15 0 C15 4.95 15 9.9 15 15 C10.05 15 5.1 15 0 15 C0 10.05 0 5.1 0 0 Z " fill="#040208" transform="translate(2355,915)"/>
<path d="M0 0 C4.95 0 9.9 0 15 0 C15 4.95 15 9.9 15 15 C10.05 15 5.1 15 0 15 C0 10.05 0 5.1 0 0 Z " fill="#9FBFBF" transform="translate(1500,915)"/>
<path d="M0 0 C4.95 0 9.9 0 15 0 C15 4.95 15 9.9 15 15 C10.05 15 5.1 15 0 15 C0 10.05 0 5.1 0 0 Z " fill="#9FBFBF" transform="translate(2295,900)"/>
<path d="M0 0 C4.95 0 9.9 0 15 0 C15 4.95 15 9.9 15 15 C10.05 15 5.1 15 0 15 C0 10.05 0 5.1 0 0 Z " fill="#0A071D" transform="translate(1410,900)"/>
<path d="M0 0 C4.95 0 9.9 0 15 0 C15 4.95 15 9.9 15 15 C10.05 15 5.1 15 0 15 C0 10.05 0 5.1 0 0 Z " fill="#0A071D" transform="translate(2025,885)"/>
<path d="M0 0 C4.95 0 9.9 0 15 0 C15 4.95 15 9.9 15 15 C10.05 15 5.1 15 0 15 C0 10.05 0 5.1 0 0 Z " fill="#0A071D" transform="translate(1395,885)"/>
<path d="M0 0 C4.95 0 9.9 0 15 0 C15 4.95 15 9.9 15 15 C10.05 15 5.1 15 0 15 C0 10.05 0 5.1 0 0 Z " fill="#0A071D" transform="translate(555,885)"/>
<path d="M0 0 C4.95 0 9.9 0 15 0 C15 4.95 15 9.9 15 15 C10.05 15 5.1 15 0 15 C0 10.05 0 5.1 0 0 Z " fill="#223B4D" transform="translate(1605,870)"/>
<path d="M0 0 C4.95 0 9.9 0 15 0 C15 4.95 15 9.9 15 15 C10.05 15 5.1 15 0 15 C0 10.05 0 5.1 0 0 Z " fill="#87AAB0" transform="translate(675,870)"/>
<path d="M0 0 C4.95 0 9.9 0 15 0 C15 4.95 15 9.9 15 15 C10.05 15 5.1 15 0 15 C0 10.05 0 5.1 0 0 Z " fill="#040208" transform="translate(2760,855)"/>
<path d="M0 0 C4.95 0 9.9 0 15 0 C15 4.95 15 9.9 15 15 C10.05 15 5.1 15 0 15 C0 10.05 0 5.1 0 0 Z " fill="#87AAB0" transform="translate(2625,855)"/>
<path d="M0 0 C4.95 0 9.9 0 15 0 C15 4.95 15 9.9 15 15 C10.05 15 5.1 15 0 15 C0 10.05 0 5.1 0 0 Z " fill="#040208" transform="translate(960,855)"/>
<path d="M0 0 C4.95 0 9.9 0 15 0 C15 4.95 15 9.9 15 15 C10.05 15 5.1 15 0 15 C0 10.05 0 5.1 0 0 Z " fill="#87AAB0" transform="translate(195,855)"/>
<path d="M0 0 C4.95 0 9.9 0 15 0 C15 4.95 15 9.9 15 15 C10.05 15 5.1 15 0 15 C0 10.05 0 5.1 0 0 Z " fill="#0A071D" transform="translate(30,855)"/>
<path d="M0 0 C4.95 0 9.9 0 15 0 C15 4.95 15 9.9 15 15 C10.05 15 5.1 15 0 15 C0 10.05 0 5.1 0 0 Z " fill="#87AAB0" transform="translate(2175,825)"/>
<path d="M0 0 C4.95 0 9.9 0 15 0 C15 4.95 15 9.9 15 15 C10.05 15 5.1 15 0 15 C0 10.05 0 5.1 0 0 Z " fill="#87AAB0" transform="translate(1215,825)"/>
<path d="M0 0 C4.95 0 9.9 0 15 0 C15 4.95 15 9.9 15 15 C10.05 15 5.1 15 0 15 C0 10.05 0 5.1 0 0 Z " fill="#0A071D" transform="translate(975,825)"/>
<path d="M0 0 C4.95 0 9.9 0 15 0 C15 4.95 15 9.9 15 15 C10.05 15 5.1 15 0 15 C0 10.05 0 5.1 0 0 Z " fill="#0A071D" transform="translate(2115,810)"/>
<path d="M0 0 C4.95 0 9.9 0 15 0 C15 4.95 15 9.9 15 15 C10.05 15 5.1 15 0 15 C0 10.05 0 5.1 0 0 Z " fill="#040208" transform="translate(195,810)"/>
<path d="M0 0 C4.95 0 9.9 0 15 0 C15 4.95 15 9.9 15 15 C10.05 15 5.1 15 0 15 C0 10.05 0 5.1 0 0 Z " fill="#87AAB0" transform="translate(2850,795)"/>
<path d="M0 0 C4.95 0 9.9 0 15 0 C15 4.95 15 9.9 15 15 C10.05 15 5.1 15 0 15 C0 10.05 0 5.1 0 0 Z " fill="#87AAB0" transform="translate(900,795)"/>
<path d="M0 0 C4.95 0 9.9 0 15 0 C15 4.95 15 9.9 15 15 C10.05 15 5.1 15 0 15 C0 10.05 0 5.1 0 0 Z " fill="#9FBFBF" transform="translate(795,795)"/>
<path d="M0 0 C4.95 0 9.9 0 15 0 C15 4.95 15 9.9 15 15 C10.05 15 5.1 15 0 15 C0 10.05 0 5.1 0 0 Z " fill="#040208" transform="translate(180,795)"/>
<path d="M0 0 C4.95 0 9.9 0 15 0 C15 4.95 15 9.9 15 15 C10.05 15 5.1 15 0 15 C0 10.05 0 5.1 0 0 Z " fill="#233155" transform="translate(1170,780)"/>
<path d="M0 0 C4.95 0 9.9 0 15 0 C15 4.95 15 9.9 15 15 C10.05 15 5.1 15 0 15 C0 10.05 0 5.1 0 0 Z " fill="#040208" transform="translate(2190,765)"/>
<path d="M0 0 C4.95 0 9.9 0 15 0 C15 4.95 15 9.9 15 15 C10.05 15 5.1 15 0 15 C0 10.05 0 5.1 0 0 Z " fill="#9FBFBF" transform="translate(60,765)"/>
<path d="M0 0 C4.95 0 9.9 0 15 0 C15 4.95 15 9.9 15 15 C10.05 15 5.1 15 0 15 C0 10.05 0 5.1 0 0 Z " fill="#040208" transform="translate(2175,750)"/>
<path d="M0 0 C4.95 0 9.9 0 15 0 C15 4.95 15 9.9 15 15 C10.05 15 5.1 15 0 15 C0 10.05 0 5.1 0 0 Z " fill="#87AAB0" transform="translate(1920,750)"/>
<path d="M0 0 C4.95 0 9.9 0 15 0 C15 4.95 15 9.9 15 15 C10.05 15 5.1 15 0 15 C0 10.05 0 5.1 0 0 Z " fill="#9FBFBF" transform="translate(615,750)"/>
<path d="M0 0 C4.95 0 9.9 0 15 0 C15 4.95 15 9.9 15 15 C10.05 15 5.1 15 0 15 C0 10.05 0 5.1 0 0 Z " fill="#141E36" transform="translate(600,750)"/>
<path d="M0 0 C4.95 0 9.9 0 15 0 C15 4.95 15 9.9 15 15 C10.05 15 5.1 15 0 15 C0 10.05 0 5.1 0 0 Z " fill="#0A071D" transform="translate(2805,735)"/>
<path d="M0 0 C4.95 0 9.9 0 15 0 C15 4.95 15 9.9 15 15 C10.05 15 5.1 15 0 15 C0 10.05 0 5.1 0 0 Z " fill="#040208" transform="translate(2730,735)"/>
<path d="M0 0 C4.95 0 9.9 0 15 0 C15 4.95 15 9.9 15 15 C10.05 15 5.1 15 0 15 C0 10.05 0 5.1 0 0 Z " fill="#0A071D" transform="translate(1050,735)"/>
<path d="M0 0 C4.95 0 9.9 0 15 0 C15 4.95 15 9.9 15 15 C10.05 15 5.1 15 0 15 C0 10.05 0 5.1 0 0 Z " fill="#223B4D" transform="translate(2835,720)"/>
<path d="M0 0 C4.95 0 9.9 0 15 0 C15 4.95 15 9.9 15 15 C10.05 15 5.1 15 0 15 C0 10.05 0 5.1 0 0 Z " fill="#0A071D" transform="translate(1410,705)"/>
<path d="M0 0 C4.95 0 9.9 0 15 0 C15 4.95 15 9.9 15 15 C10.05 15 5.1 15 0 15 C0 10.05 0 5.1 0 0 Z " fill="#87AAB0" transform="translate(1350,705)"/>
<path d="M0 0 C4.95 0 9.9 0 15 0 C15 4.95 15 9.9 15 15 C10.05 15 5.1 15 0 15 C0 10.05 0 5.1 0 0 Z " fill="#9FBFBF" transform="translate(2280,690)"/>
<path d="M0 0 C4.95 0 9.9 0 15 0 C15 4.95 15 9.9 15 15 C10.05 15 5.1 15 0 15 C0 10.05 0 5.1 0 0 Z " fill="#9FBFBF" transform="translate(2010,675)"/>
<path d="M0 0 C4.95 0 9.9 0 15 0 C15 4.95 15 9.9 15 15 C10.05 15 5.1 15 0 15 C0 10.05 0 5.1 0 0 Z " fill="#9FBFBF" transform="translate(1125,675)"/>
<path d="M0 0 C4.95 0 9.9 0 15 0 C15 4.95 15 9.9 15 15 C10.05 15 5.1 15 0 15 C0 10.05 0 5.1 0 0 Z " fill="#040208" transform="translate(840,675)"/>
<path d="M0 0 C4.95 0 9.9 0 15 0 C15 4.95 15 9.9 15 15 C10.05 15 5.1 15 0 15 C0 10.05 0 5.1 0 0 Z " fill="#223B4D" transform="translate(1815,660)"/>
<path d="M0 0 C4.95 0 9.9 0 15 0 C15 4.95 15 9.9 15 15 C10.05 15 5.1 15 0 15 C0 10.05 0 5.1 0 0 Z " fill="#0A071D" transform="translate(975,660)"/>
<path d="M0 0 C4.95 0 9.9 0 15 0 C15 4.95 15 9.9 15 15 C10.05 15 5.1 15 0 15 C0 10.05 0 5.1 0 0 Z " fill="#0A071D" transform="translate(90,660)"/>
<path d="M0 0 C4.95 0 9.9 0 15 0 C15 4.95 15 9.9 15 15 C10.05 15 5.1 15 0 15 C0 10.05 0 5.1 0 0 Z " fill="#9FBFBF" transform="translate(1260,645)"/>
<path d="M0 0 C4.95 0 9.9 0 15 0 C15 4.95 15 9.9 15 15 C10.05 15 5.1 15 0 15 C0 10.05 0 5.1 0 0 Z " fill="#223B4D" transform="translate(2925,630)"/>
<path d="M0 0 C4.95 0 9.9 0 15 0 C15 4.95 15 9.9 15 15 C10.05 15 5.1 15 0 15 C0 10.05 0 5.1 0 0 Z " fill="#223B4D" transform="translate(2475,630)"/>
<path d="M0 0 C4.95 0 9.9 0 15 0 C15 4.95 15 9.9 15 15 C10.05 15 5.1 15 0 15 C0 10.05 0 5.1 0 0 Z " fill="#9FBFBF" transform="translate(1860,630)"/>
<path d="M0 0 C4.95 0 9.9 0 15 0 C15 4.95 15 9.9 15 15 C10.05 15 5.1 15 0 15 C0 10.05 0 5.1 0 0 Z " fill="#9FBFBF" transform="translate(360,630)"/>
<path d="M0 0 C4.95 0 9.9 0 15 0 C15 4.95 15 9.9 15 15 C10.05 15 5.1 15 0 15 C0 10.05 0 5.1 0 0 Z " fill="#040208" transform="translate(2280,615)"/>
<path d="M0 0 C4.95 0 9.9 0 15 0 C15 4.95 15 9.9 15 15 C10.05 15 5.1 15 0 15 C0 10.05 0 5.1 0 0 Z " fill="#0A071D" transform="translate(2055,615)"/>
<path d="M0 0 C4.95 0 9.9 0 15 0 C15 4.95 15 9.9 15 15 C10.05 15 5.1 15 0 15 C0 10.05 0 5.1 0 0 Z " fill="#87AAB0" transform="translate(690,615)"/>
<path d="M0 0 C4.95 0 9.9 0 15 0 C15 4.95 15 9.9 15 15 C10.05 15 5.1 15 0 15 C0 10.05 0 5.1 0 0 Z " fill="#87AAB0" transform="translate(495,615)"/>
<path d="M0 0 C4.95 0 9.9 0 15 0 C15 4.95 15 9.9 15 15 C10.05 15 5.1 15 0 15 C0 10.05 0 5.1 0 0 Z " fill="#87AAB0" transform="translate(2880,600)"/>
<path d="M0 0 C4.95 0 9.9 0 15 0 C15 4.95 15 9.9 15 15 C10.05 15 5.1 15 0 15 C0 10.05 0 5.1 0 0 Z " fill="#9FBFBF" transform="translate(2370,600)"/>
<path d="M0 0 C4.95 0 9.9 0 15 0 C15 4.95 15 9.9 15 15 C10.05 15 5.1 15 0 15 C0 10.05 0 5.1 0 0 Z " fill="#040208" transform="translate(2295,600)"/>
<path d="M0 0 C4.95 0 9.9 0 15 0 C15 4.95 15 9.9 15 15 C10.05 15 5.1 15 0 15 C0 10.05 0 5.1 0 0 Z " fill="#0A071D" transform="translate(1470,600)"/>
<path d="M0 0 C4.95 0 9.9 0 15 0 C15 4.95 15 9.9 15 15 C10.05 15 5.1 15 0 15 C0 10.05 0 5.1 0 0 Z " fill="#87AAB0" transform="translate(2700,585)"/>
<path d="M0 0 C4.95 0 9.9 0 15 0 C15 4.95 15 9.9 15 15 C10.05 15 5.1 15 0 15 C0 10.05 0 5.1 0 0 Z " fill="#9FBFBF" transform="translate(1050,585)"/>
<path d="M0 0 C4.95 0 9.9 0 15 0 C15 4.95 15 9.9 15 15 C10.05 15 5.1 15 0 15 C0 10.05 0 5.1 0 0 Z " fill="#87AAB0" transform="translate(300,585)"/>
<path d="M0 0 C4.95 0 9.9 0 15 0 C15 4.95 15 9.9 15 15 C10.05 15 5.1 15 0 15 C0 10.05 0 5.1 0 0 Z " fill="#040208" transform="translate(180,570)"/>
<path d="M0 0 C4.95 0 9.9 0 15 0 C15 4.95 15 9.9 15 15 C10.05 15 5.1 15 0 15 C0 10.05 0 5.1 0 0 Z " fill="#9FBFBF" transform="translate(30,570)"/>
<path d="M0 0 C4.95 0 9.9 0 15 0 C15 4.95 15 9.9 15 15 C10.05 15 5.1 15 0 15 C0 10.05 0 5.1 0 0 Z " fill="#87AAB0" transform="translate(2055,525)"/>
<path d="M0 0 C4.95 0 9.9 0 15 0 C15 4.95 15 9.9 15 15 C10.05 15 5.1 15 0 15 C0 10.05 0 5.1 0 0 Z " fill="#9FBFBF" transform="translate(1965,525)"/>
<path d="M0 0 C4.95 0 9.9 0 15 0 C15 4.95 15 9.9 15 15 C10.05 15 5.1 15 0 15 C0 10.05 0 5.1 0 0 Z " fill="#87AAB0" transform="translate(1815,525)"/>
<path d="M0 0 C4.95 0 9.9 0 15 0 C15 4.95 15 9.9 15 15 C10.05 15 5.1 15 0 15 C0 10.05 0 5.1 0 0 Z " fill="#223B4D" transform="translate(1710,525)"/>
<path d="M0 0 C4.95 0 9.9 0 15 0 C15 4.95 15 9.9 15 15 C10.05 15 5.1 15 0 15 C0 10.05 0 5.1 0 0 Z " fill="#87AAB0" transform="translate(1185,495)"/>
<path d="M0 0 C4.95 0 9.9 0 15 0 C15 4.95 15 9.9 15 15 C10.05 15 5.1 15 0 15 C0 10.05 0 5.1 0 0 Z " fill="#040208" transform="translate(1005,495)"/>
<path d="M0 0 C4.95 0 9.9 0 15 0 C15 4.95 15 9.9 15 15 C10.05 15 5.1 15 0 15 C0 10.05 0 5.1 0 0 Z " fill="#87AAB0" transform="translate(810,495)"/>
<path d="M0 0 C4.95 0 9.9 0 15 0 C15 4.95 15 9.9 15 15 C10.05 15 5.1 15 0 15 C0 10.05 0 5.1 0 0 Z " fill="#223B4D" transform="translate(450,495)"/>
<path d="M0 0 C4.95 0 9.9 0 15 0 C15 4.95 15 9.9 15 15 C10.05 15 5.1 15 0 15 C0 10.05 0 5.1 0 0 Z " fill="#040208" transform="translate(2175,480)"/>
<path d="M0 0 C4.95 0 9.9 0 15 0 C15 4.95 15 9.9 15 15 C10.05 15 5.1 15 0 15 C0 10.05 0 5.1 0 0 Z " fill="#9FBFBF" transform="translate(690,480)"/>
<path d="M0 0 C4.95 0 9.9 0 15 0 C15 4.95 15 9.9 15 15 C10.05 15 5.1 15 0 15 C0 10.05 0 5.1 0 0 Z " fill="#040208" transform="translate(255,465)"/>
<path d="M0 0 C4.95 0 9.9 0 15 0 C15 4.95 15 9.9 15 15 C10.05 15 5.1 15 0 15 C0 10.05 0 5.1 0 0 Z " fill="#223B4D" transform="translate(2940,450)"/>
<path d="M0 0 C4.95 0 9.9 0 15 0 C15 4.95 15 9.9 15 15 C10.05 15 5.1 15 0 15 C0 10.05 0 5.1 0 0 Z " fill="#223B4D" transform="translate(1665,450)"/>
<path d="M0 0 C4.95 0 9.9 0 15 0 C15 4.95 15 9.9 15 15 C10.05 15 5.1 15 0 15 C0 10.05 0 5.1 0 0 Z " fill="#223B4D" transform="translate(2925,435)"/>
<path d="M0 0 C4.95 0 9.9 0 15 0 C15 4.95 15 9.9 15 15 C10.05 15 5.1 15 0 15 C0 10.05 0 5.1 0 0 Z " fill="#87AAB0" transform="translate(2310,435)"/>
<path d="M0 0 C4.95 0 9.9 0 15 0 C15 4.95 15 9.9 15 15 C10.05 15 5.1 15 0 15 C0 10.05 0 5.1 0 0 Z " fill="#9FBFBF" transform="translate(1710,435)"/>
<path d="M0 0 C4.95 0 9.9 0 15 0 C15 4.95 15 9.9 15 15 C10.05 15 5.1 15 0 15 C0 10.05 0 5.1 0 0 Z " fill="#9FBFBF" transform="translate(1365,435)"/>
<path d="M0 0 C4.95 0 9.9 0 15 0 C15 4.95 15 9.9 15 15 C10.05 15 5.1 15 0 15 C0 10.05 0 5.1 0 0 Z " fill="#9FBFBF" transform="translate(2100,420)"/>
<path d="M0 0 C4.95 0 9.9 0 15 0 C15 4.95 15 9.9 15 15 C10.05 15 5.1 15 0 15 C0 10.05 0 5.1 0 0 Z " fill="#9FBFBF" transform="translate(1170,390)"/>
<path d="M0 0 C4.95 0 9.9 0 15 0 C15 4.95 15 9.9 15 15 C10.05 15 5.1 15 0 15 C0 10.05 0 5.1 0 0 Z " fill="#223B4D" transform="translate(375,390)"/>
<path d="M0 0 C4.95 0 9.9 0 15 0 C15 4.95 15 9.9 15 15 C10.05 15 5.1 15 0 15 C0 10.05 0 5.1 0 0 Z " fill="#9FBFBF" transform="translate(450,375)"/>
<path d="M0 0 C4.95 0 9.9 0 15 0 C15 4.95 15 9.9 15 15 C10.05 15 5.1 15 0 15 C0 10.05 0 5.1 0 0 Z " fill="#9FBFBF" transform="translate(2655,345)"/>
<path d="M0 0 C4.95 0 9.9 0 15 0 C15 4.95 15 9.9 15 15 C10.05 15 5.1 15 0 15 C0 10.05 0 5.1 0 0 Z " fill="#87AAB0" transform="translate(990,345)"/>
<path d="M0 0 C4.95 0 9.9 0 15 0 C15 4.95 15 9.9 15 15 C10.05 15 5.1 15 0 15 C0 10.05 0 5.1 0 0 Z " fill="#87AAB0" transform="translate(1470,330)"/>
<path d="M0 0 C4.95 0 9.9 0 15 0 C15 4.95 15 9.9 15 15 C10.05 15 5.1 15 0 15 C0 10.05 0 5.1 0 0 Z " fill="#223B4D" transform="translate(2940,315)"/>
<path d="M0 0 C4.95 0 9.9 0 15 0 C15 4.95 15 9.9 15 15 C10.05 15 5.1 15 0 15 C0 10.05 0 5.1 0 0 Z " fill="#87AAB0" transform="translate(2760,315)"/>
<path d="M0 0 C4.95 0 9.9 0 15 0 C15 4.95 15 9.9 15 15 C10.05 15 5.1 15 0 15 C0 10.05 0 5.1 0 0 Z " fill="#9FBFBF" transform="translate(795,315)"/>
<path d="M0 0 C4.95 0 9.9 0 15 0 C15 4.95 15 9.9 15 15 C10.05 15 5.1 15 0 15 C0 10.05 0 5.1 0 0 Z " fill="#9FBFBF" transform="translate(2100,300)"/>
<path d="M0 0 C4.95 0 9.9 0 15 0 C15 4.95 15 9.9 15 15 C10.05 15 5.1 15 0 15 C0 10.05 0 5.1 0 0 Z " fill="#87AAB0" transform="translate(1260,300)"/>
<path d="M0 0 C4.95 0 9.9 0 15 0 C15 4.95 15 9.9 15 15 C10.05 15 5.1 15 0 15 C0 10.05 0 5.1 0 0 Z " fill="#87AAB0" transform="translate(615,300)"/>
<path d="M0 0 C4.95 0 9.9 0 15 0 C15 4.95 15 9.9 15 15 C10.05 15 5.1 15 0 15 C0 10.05 0 5.1 0 0 Z " fill="#9FBFBF" transform="translate(1800,285)"/>
<path d="M0 0 C4.95 0 9.9 0 15 0 C15 4.95 15 9.9 15 15 C10.05 15 5.1 15 0 15 C0 10.05 0 5.1 0 0 Z " fill="#87AAB0" transform="translate(2955,255)"/>
<path d="M0 0 C4.95 0 9.9 0 15 0 C15 4.95 15 9.9 15 15 C10.05 15 5.1 15 0 15 C0 10.05 0 5.1 0 0 Z " fill="#87AAB0" transform="translate(2325,240)"/>
<path d="M0 0 C4.95 0 9.9 0 15 0 C15 4.95 15 9.9 15 15 C10.05 15 5.1 15 0 15 C0 10.05 0 5.1 0 0 Z " fill="#9FBFBF" transform="translate(1905,225)"/>
<path d="M0 0 C4.95 0 9.9 0 15 0 C15 4.95 15 9.9 15 15 C10.05 15 5.1 15 0 15 C0 10.05 0 5.1 0 0 Z " fill="#9FBFBF" transform="translate(1410,225)"/>
<path d="M0 0 C4.95 0 9.9 0 15 0 C15 4.95 15 9.9 15 15 C10.05 15 5.1 15 0 15 C0 10.05 0 5.1 0 0 Z " fill="#87AAB0" transform="translate(165,225)"/>
<path d="M0 0 C4.95 0 9.9 0 15 0 C15 4.95 15 9.9 15 15 C10.05 15 5.1 15 0 15 C0 10.05 0 5.1 0 0 Z " fill="#87AAB0" transform="translate(720,180)"/>
<path d="M0 0 C4.95 0 9.9 0 15 0 C15 4.95 15 9.9 15 15 C10.05 15 5.1 15 0 15 C0 10.05 0 5.1 0 0 Z " fill="#87AAB0" transform="translate(390,180)"/>
<path d="M0 0 C4.95 0 9.9 0 15 0 C15 4.95 15 9.9 15 15 C10.05 15 5.1 15 0 15 C0 10.05 0 5.1 0 0 Z " fill="#87AAB0" transform="translate(2700,150)"/>
<path d="M0 0 C4.95 0 9.9 0 15 0 C15 4.95 15 9.9 15 15 C10.05 15 5.1 15 0 15 C0 10.05 0 5.1 0 0 Z " fill="#87AAB0" transform="translate(1635,150)"/>
<path d="M0 0 C4.95 0 9.9 0 15 0 C15 4.95 15 9.9 15 15 C10.05 15 5.1 15 0 15 C0 10.05 0 5.1 0 0 Z " fill="#87AAB0" transform="translate(1035,135)"/>
<path d="M0 0 C4.95 0 9.9 0 15 0 C15 4.95 15 9.9 15 15 C10.05 15 5.1 15 0 15 C0 10.05 0 5.1 0 0 Z " fill="#9FBFBF" transform="translate(1260,120)"/>
<path d="M0 0 C4.95 0 9.9 0 15 0 C15 4.95 15 9.9 15 15 C10.05 15 5.1 15 0 15 C0 10.05 0 5.1 0 0 Z " fill="#87AAB0" transform="translate(1995,105)"/>
<path d="M0 0 C4.95 0 9.9 0 15 0 C15 4.95 15 9.9 15 15 C10.05 15 5.1 15 0 15 C0 10.05 0 5.1 0 0 Z " fill="#87AAB0" transform="translate(60,105)"/>
<path d="M0 0 C4.95 0 9.9 0 15 0 C15 4.95 15 9.9 15 15 C10.05 15 5.1 15 0 15 C0 10.05 0 5.1 0 0 Z " fill="#87AAB0" transform="translate(2385,90)"/>
<path d="M0 0 C4.95 0 9.9 0 15 0 C15 4.95 15 9.9 15 15 C10.05 15 5.1 15 0 15 C0 10.05 0 5.1 0 0 Z " fill="#9FBFBF" transform="translate(2220,90)"/>
<path d="M0 0 C4.95 0 9.9 0 15 0 C15 4.95 15 9.9 15 15 C10.05 15 5.1 15 0 15 C0 10.05 0 5.1 0 0 Z " fill="#9FBFBF" transform="translate(855,75)"/>
<path d="M0 0 C4.95 0 9.9 0 15 0 C15 4.95 15 9.9 15 15 C10.05 15 5.1 15 0 15 C0 10.05 0 5.1 0 0 Z " fill="#87AAB0" transform="translate(1410,30)"/>
<path d="M0 0 C4.95 0 9.9 0 15 0 C15 4.95 15 9.9 15 15 C10.05 15 5.1 15 0 15 C0 10.05 0 5.1 0 0 Z " fill="#87AAB0" transform="translate(630,30)"/>
</svg>
